<svg width="276" height="110" viewBox="0 0 276 110" fill="none" xmlns="http://www.w3.org/2000/svg">
<path d="M200.314 69.9956C199.844 70.4651 200.597 71.0298 200.314 71.455C198.098 71.1726 197.672 71.6421 197.249 74.326C195.268 74.326 193.287 74.326 191.068 74.326C191.399 73.2919 191.634 72.4415 192.012 71.2202C190.502 70.7032 188.992 69.9956 187.341 69.6214C186.257 69.3391 185.831 68.7268 185.548 67.8798C185.265 66.9851 185.405 66.1857 186.162 65.4305C187.294 64.3488 188.334 63.1718 189.322 61.9472C189.793 61.3349 190.076 60.5354 190.359 59.7803C190.454 59.5932 190.359 58.9809 190.216 58.8856C189.697 59.6374 188.422 61.5696 188.044 61.6172C187.526 61.7124 187.901 59.4503 187.099 59.7803C186.25 60.1579 186.864 64.9101 181.675 63.9712C183.138 61.7601 182.429 59.7803 179.977 61.5219C180.212 59.685 180.025 57.9433 179.646 56.3445C179.459 55.5451 178.702 54.8852 178.232 54.1334C177.761 53.2864 176.864 52.5346 176.769 51.64C176.486 49.6159 176.626 46.7449 176.486 44.7209C176.438 44.2956 175.777 44.4385 175.45 44.2514C173.233 42.8873 173.233 41.2375 174.082 38.744C174.365 37.8494 175.119 36.9071 175.971 36.1553C175.876 37.7541 176.206 38.5093 176.585 39.1693C176.68 39.3563 177.103 39.6863 177.246 39.6387C177.294 38.8869 177.294 38.1317 177.389 37.3799C177.625 35.0736 178.521 33.9442 180.833 33.8966C182.108 33.849 183.615 34.0837 184.89 33.9442C185.691 33.849 186.966 33.8013 187.249 33.2843C187.345 33.1414 187.297 32.7672 187.154 32.672C186.823 32.4372 186.07 32.5767 185.551 32.5767C185.033 32.5767 184.137 32.6243 183.571 32.6243C183.854 29.988 186.827 27.4469 189.656 27.2564C192.251 27.0693 195.602 27.8687 197.675 29.2805C201.545 31.6821 203.29 33.6585 207.44 36.9071C209.703 38.5535 211.684 39.8734 213.996 41.4246C214.327 41.6593 215.08 41.9893 215.741 42.2716C215.271 40.6252 214.797 39.3053 214.466 37.9889C214.279 37.2371 214.183 36.4343 214.183 35.6825C214.136 33.5632 215.22 32.5767 217.156 33.2332C219.846 34.1755 222.628 35.6349 225.414 36.8119C223.29 38.7406 220.743 39.0706 219.468 36.7166C219.233 36.3866 218.997 36.0567 218.714 35.822C217.487 34.8321 216.59 35.2096 216.307 35.7267C216.12 36.0567 216.26 36.7166 216.403 37.1384C217.112 38.7372 217.913 40.2918 218.81 41.7988C219.989 43.8228 221.452 45.7074 222.536 47.7756C224.613 51.8236 224.33 55.8717 221.97 59.8245C221.5 60.6239 221.452 62.0832 221.827 62.9779C222.206 63.8725 222.062 64.342 222.676 65.2366C223.573 66.5531 222.25 67.0259 221.401 69.567C221.023 70.6488 221.023 72.1557 220.93 73.3327C220.835 74.1321 220.6 74.4621 219.799 74.4621C218.479 74.4145 217.156 74.4621 215.411 74.4621C215.977 73.4722 215.837 72.5775 216.403 72.1081C218.244 70.9311 218.479 69.4718 218.196 67.4954C217.726 65.6108 217.347 64.2943 216.594 63.9644C215.98 63.682 214.848 63.682 213.15 63.9644C212.915 64.1991 213.103 64.7162 213.103 64.7638C214.095 66.2231 213.103 66.6483 212.066 67.4954C209.99 69.0942 208.527 70.3188 207.678 72.9075C207.583 73.2375 207.491 74.4145 207.208 74.4621C205.697 74.5573 203.198 74.5097 201.688 74.5097C201.593 74.3668 202.019 73.8022 202.019 73.6151C201.971 72.768 202.68 72.4857 203.294 71.9686C205.322 70.3222 206.076 68.1553 206.785 65.8489C207.163 64.6719 205.275 64.2501 204.569 64.342C203.768 64.4372 202.871 64.3896 202.07 66.1789C201.835 66.7436 201.691 67.4035 201.599 68.0158C201.504 68.5805 201.695 69.7099 201.552 69.9922C201.541 70.0432 200.457 70.0433 200.314 69.9956ZM202.534 41.047C202.346 40.9994 201.78 40.8123 201.685 40.8599C205.363 45.9421 205.459 50.3201 200.931 54.511C201.593 54.511 202.346 54.4158 202.677 54.3681C206.025 54.0382 207.866 53.2864 212.301 53.4735C216.737 53.4259 218.2 54.6028 219.71 58.6509C219.853 58.6033 219.993 58.5557 220.088 58.4638C223.344 54.5552 222.021 47.779 217.398 45.755C212.492 43.6357 208.244 40.6728 204.283 37.1895C203.856 36.8119 203.007 36.1077 202.585 35.7777C202.441 35.873 202.632 36.4377 202.632 36.4377C202.632 36.4377 204.047 39.7339 204.848 41.6627C203.805 41.4212 203.099 41.2341 202.534 41.047ZM193.284 36.6214C193.332 38.5978 192.53 39.8224 191.16 40.8123C190.359 41.4246 190.028 42.4587 190.877 43.401C191.678 44.2956 192.623 44.1528 193.519 43.5439C195.643 42.0811 195.643 38.9754 193.284 36.6214ZM195.691 63.216C194.276 64.393 192.861 65.6176 191.491 66.7946C192.292 67.1246 193.141 66.8899 193.707 67.1722C194.273 67.4545 194.508 68.3016 194.886 68.9139C196.257 67.7369 196.683 65.0053 195.691 63.216ZM180.547 53.8953C180.83 54.0824 181.678 53.8 181.961 54.0382C182.34 54.3205 182.81 55.2628 183.612 55.2628C184.413 55.2628 184.743 54.4634 185.17 54.181C185.453 53.9939 186.445 54.1334 186.728 53.9939C185.783 52.3441 181.917 52.2012 180.547 53.8953ZM190.171 46.1292C189.745 46.5986 189.179 47.2109 188.852 47.728C188.709 47.9627 188.569 48.4355 188.709 48.6226C188.896 48.8097 189.51 48.7655 189.745 48.6226C190.359 48.2961 190.597 46.5544 190.171 46.1292Z" fill="black"/>
<path d="M56.5627 66.8396L54.0637 74.4662H50.8555L59.6312 50.2256H62.178L71.0934 74.4662H67.7455L65.1509 66.8396H56.5627ZM64.1111 63.8733L60.9983 55.1649C60.6199 56.6242 57.8856 63.8257 57.8856 63.8257L64.1111 63.8733Z" fill="black"/>
<path d="M72.8866 61.6628C72.8866 59.8735 72.8389 56.8154 72.8389 56.8154L75.7164 56.7678L75.7641 58.2747L76.0948 58.2271C76.9915 56.5807 78.2189 56.2983 80.2952 56.2983C82.4669 56.2983 83.9296 57.0501 84.6353 59.0741L85.0137 59.0265C85.532 58.0366 85.8627 57.71 86.5718 57.1419C87.6083 56.5296 88.7436 56.2949 90.2982 56.2949C92.4223 56.2949 95.5828 58.1318 95.5828 64.1563V74.4193H92.753V64.5815C92.753 61.241 91.6211 59.2136 89.2618 59.2136C87.6117 59.2136 86.3843 59.7783 85.8661 61.3329C85.7229 61.7581 85.5831 63.0745 85.5831 63.6868V74.4193H82.7533V64.0168C82.7533 61.241 81.6214 59.217 79.4053 59.217C77.5643 59.217 76.5756 59.9688 76.1017 61.571C75.9141 62.0404 75.771 63.4079 75.771 63.925V74.4227H72.6582L72.8866 61.6628Z" fill="black"/>
<path d="M100.817 66.3216C100.912 70.6043 103.271 72.0637 106.48 72.0637C108.791 72.0637 110.206 70.3696 110.915 69.1926L113.087 71.2167C111.577 73.3835 109.217 74.7953 106.435 74.7953C101.011 74.7953 97.8027 71.2643 97.8027 66.0392C97.8027 60.8142 100.21 56.6709 106.06 56.6709C111.815 56.6709 113.844 61.6612 113.844 64.8622C113.844 65.5222 113.748 65.9916 113.748 66.3216H100.817ZM110.537 64.0594C110.584 62.0354 109.357 59.1167 105.77 59.1167C102.514 59.1167 101.1 61.8925 100.864 64.0594H110.537Z" fill="black"/>
<path d="M115.678 62.4617C115.678 60.3901 115.678 56.8115 115.678 56.8115H118.651L118.603 58.9783L118.79 59.0736C119.639 57.2843 121.573 56.5801 122.8 56.6244C123.131 56.6244 124.45 56.5291 124.733 56.6244V59.5907C124.45 59.4954 123.035 59.5907 122.657 59.5907C120.58 59.5907 119.166 61.2847 118.739 63.6387C118.692 64.0639 118.596 64.581 118.596 65.098V74.3711H115.719V62.4617H115.678Z" fill="black"/>
<path d="M126.909 74.7013V57.2845H129.834V74.7013H126.909ZM126.909 55.7299V52.3418H129.834V55.7299H126.909Z" fill="black"/>
<path d="M137.947 52.0596V57.0499H142.57V59.4515H137.947V68.8198C137.947 70.9867 138.513 72.208 140.119 72.208C140.872 72.208 142.052 71.8304 142.618 71.4085V74.1401C142.052 74.3748 141.203 74.8477 139.362 74.8477C137.995 74.8001 136.907 74.3782 136.202 73.5312C135.353 72.5889 135.07 71.0378 135.07 69.0137V59.5059H132.005V57.1043H135.07V52.114H137.947V52.0596Z" fill="black"/>
<path d="M155.214 74.4666L154.979 72.2555H154.883C153.891 73.6196 151.958 74.8442 149.459 74.8442C145.872 74.8442 144.035 72.3507 144.035 69.8539C144.035 65.0983 147.857 63.3566 154.743 63.4042V63.0266C154.743 61.5673 154.317 59.0262 150.686 59.0262C149.036 59.0262 147.761 59.9209 146.486 61.0979L144.553 59.3086C146.912 57.2369 149.081 56.4375 151.3 56.4375C156.724 56.4375 157.904 60.3461 157.904 63.8294V70.3267C157.904 71.8337 157.999 73.293 158.187 74.5176H155.214V74.4666ZM154.743 65.9453C151.205 65.8501 147.195 66.0882 147.195 69.4763C147.195 71.5479 148.61 72.1126 150.26 72.1126C152.572 72.1126 154.034 71.0309 154.553 69.5715C154.648 69.2416 154.74 68.864 154.74 68.5816V65.9453H154.743Z" fill="black"/>
<path d="M161.865 69.1939C162.335 70.1838 163.14 72.1126 166.017 72.1126C168.141 72.1126 169.413 71.0309 169.413 69.9015C169.413 68.3945 168.516 66.7957 166.205 66.7005C162.004 66.5134 160.167 63.8294 160.167 61.7578C160.167 58.9344 162.574 56.4375 166.017 56.4375C167.62 56.4375 170.31 57.0974 172.151 59.8256L169.556 61.6625C168.707 59.778 167.667 59.1691 166.16 59.1691C164.415 59.1691 163.235 60.159 163.235 61.4278C163.235 62.8872 164.65 64.0165 167.763 64.3941C170.736 64.7717 172.386 66.9828 172.386 69.5715C172.386 72.6297 169.791 75.1265 165.969 74.8442C161.299 74.5142 160.214 72.1602 159.553 71.2656L161.865 69.1939Z" fill="black"/>
<path d="M174.607 71.6892C174.751 71.6416 174.938 71.6416 175.173 71.6416C175.456 71.6416 175.692 71.6892 175.835 71.7845C175.93 71.8797 176.022 72.0192 176.022 72.1621C176.022 72.3968 175.835 72.5873 175.596 72.6315C175.784 72.6791 175.879 72.8186 175.927 73.0091C176.022 73.2914 176.07 73.4785 176.114 73.5262H175.831C175.784 73.4785 175.736 73.2914 175.688 73.0567C175.64 72.7744 175.501 72.6791 175.262 72.6791H174.979V73.5262H174.696V71.6892H174.607ZM174.89 72.5363H175.173C175.456 72.5363 175.692 72.3934 175.692 72.1587C175.692 71.9239 175.504 71.7811 175.173 71.7811C175.03 71.7811 174.938 71.7811 174.89 71.7811V72.5363Z" fill="black"/>
<path d="M175.312 74.7508C174.132 74.7508 173.14 73.8085 173.14 72.5839C173.14 71.4069 174.084 70.417 175.312 70.417C176.491 70.417 177.483 71.3593 177.483 72.5839C177.483 73.8085 176.491 74.7508 175.312 74.7508ZM175.312 71.0769C174.463 71.0769 173.754 71.7845 173.754 72.6315C173.754 73.4785 174.463 74.1861 175.312 74.1861C176.161 74.1861 176.87 73.4785 176.87 72.6315C176.87 71.7845 176.161 71.0769 175.312 71.0769Z" fill="black"/>
</svg>
