<svg width="276" height="110" viewBox="0 0 276 110" fill="none" xmlns="http://www.w3.org/2000/svg">
<path d="M140.844 72.8652L140.638 72.7639C139.61 72.2514 139.199 70.7137 138.685 69.4842L133.341 55.3384H128.303V55.7479L128.612 55.8509L129.023 56.0553C129.331 56.2605 129.537 56.5678 129.228 57.4899C129.125 57.9003 129.023 58.2077 129.023 58.2077L124.808 69.4807C124.396 70.7102 123.984 72.2479 122.957 72.7605L122.546 72.8617V73.2721H128.2V72.8617L127.789 72.6574C127.275 72.4522 127.176 71.9396 127.686 70.4019L128.299 68.3525H134.365C134.468 68.7629 134.673 69.3777 134.978 70.3007C135.287 71.1197 135.697 72.3501 135.082 72.6583L134.67 72.7613V73.17H140.737L140.844 72.8652ZM133.442 65.6919H129.324L131.278 60.1576L133.442 65.6919Z" fill="black"/>
<path d="M177.756 55.3428V55.7523L178.166 55.9575C178.779 56.2649 178.779 57.9047 178.779 58.9264V69.8911C178.779 70.8132 178.779 72.5562 178.166 72.86L177.756 73.0652V73.4748H183.616V73.0652L183.205 72.86C182.591 72.5535 182.591 70.8106 182.591 69.8911V59.0285C182.591 57.4908 182.796 56.2614 183.205 56.0597L183.616 55.8553V55.4449H177.756V55.3428Z" fill="black"/>
<path d="M156.063 55.3428V55.7523L156.475 55.9575C157.088 56.2649 157.088 57.9047 157.088 58.9264V69.8911C157.088 70.8132 157.088 72.5562 156.475 72.86L156.063 73.0652V73.4748H161.924V73.0652L161.513 72.86C160.9 72.5535 160.9 70.8106 160.9 69.8911V59.0285C160.9 57.4908 161.106 56.2614 161.513 56.0597L161.924 55.8553V55.4449H156.063V55.3428Z" fill="black"/>
<path d="M219.913 58.8262C219.913 57.8011 219.913 56.1621 219.295 55.8573L218.884 55.6521V55.2417H224.749V55.7543L224.338 55.9595C223.926 56.1647 223.724 57.395 223.724 58.9284V69.791C223.724 70.7131 223.724 72.4551 224.338 72.7598L224.749 72.9633V73.3737H218.888V72.9633L219.299 72.7598C219.917 72.5546 219.917 70.7096 219.917 69.791L219.913 58.8262Z" fill="black"/>
<path d="M123.57 53.8038C122.234 52.4704 120.28 51.7544 118.019 51.7544H110.615V52.2661L111.027 52.3683C111.952 52.7787 111.952 55.1354 111.952 56.8783V68.6665C111.952 69.896 111.952 72.3558 111.027 72.6632L110.615 72.8675V73.2779H117.401V72.8675L117.093 72.7662C115.859 71.9454 115.859 70.2042 115.859 68.3583V64.5677L116.579 64.8751C116.579 64.8751 117.709 65.2838 118.738 65.2838C121.925 65.2838 125.318 63.1322 125.318 58.3156C125.318 56.4688 124.7 54.9311 123.57 53.8038ZM116.888 63.5391H115.859V55.4428C116.27 55.4428 116.888 55.3406 117.504 55.3406C118.944 55.3406 119.971 55.648 120.692 56.3658C121.308 56.9805 121.617 57.8001 121.617 58.8247C121.617 61.6949 119.15 63.3348 116.888 63.54V63.5391Z" fill="black"/>
<path d="M154.21 68.4604L154.107 68.5626C153.957 68.6465 153.819 68.7499 153.696 68.87C152.565 69.5877 150.92 70.4068 149.069 70.4068C147.63 70.4068 146.498 69.9981 145.574 69.0752C144.442 67.9479 143.822 66.1063 143.822 63.9512C143.822 60.6715 145.775 58.3147 148.553 58.3147C149.889 58.3147 151.226 58.7251 152.459 59.6464L152.871 59.8516L153.591 60.3641V55.6488L153.077 55.5458C151.325 55.1363 149.992 54.9346 148.656 54.9346C146.187 54.9346 144.131 55.7548 142.487 57.3952C140.734 59.1364 139.813 61.5962 139.813 64.3634C139.813 67.2327 140.739 69.5895 142.383 71.2293C144.028 72.8692 146.496 73.7913 149.374 73.7913C150.688 73.798 151.986 73.5179 153.179 72.9705H153.283L153.385 72.8683L153.488 72.767L154.721 68.5643H154.207L154.21 68.4604Z" fill="black"/>
<path d="M198.833 68.4587L198.319 68.7661C197.187 69.4838 195.543 70.3038 193.692 70.3038C192.252 70.3038 191.122 69.8933 190.196 68.9713C189.065 67.8431 188.444 66.0024 188.444 63.8473C188.444 60.5676 190.398 58.2108 193.175 58.2108C194.511 58.2108 195.848 58.6204 197.081 59.5433L198.11 60.2602V55.5449L197.595 55.4428C195.843 55.0324 194.511 54.8315 193.175 54.8315C190.706 54.8315 188.65 55.6512 187.005 57.2905C185.253 59.0369 184.331 61.4932 184.331 64.2595C184.331 67.1297 185.257 69.4864 186.902 71.1254C188.546 72.7644 191.015 73.6874 193.895 73.6874C195.207 73.6942 196.505 73.4144 197.698 72.8675L197.904 72.7662L199.24 68.4613L198.833 68.4587Z" fill="black"/>
<path d="M174.774 55.3422H164.184V55.7517L164.595 55.9569C165.209 56.2643 165.209 57.9041 165.209 58.9258V69.8905C165.209 70.8126 165.209 72.5555 164.595 72.8594L164.184 73.0646V73.4742H170.044V73.0646L169.633 72.8594C169.02 72.5529 169.02 70.81 169.02 69.8905V66.3034H172.207C172.207 66.3034 173.646 66.2013 173.852 66.816L173.955 67.0212L174.366 67.1242L174.571 62.3077H174.057L173.955 62.6142C173.852 63.0246 172.514 63.1267 172.202 63.1267H169.015V58.7206H173.333C174.259 58.7206 174.773 58.9258 174.979 59.4383L175.08 59.7448H175.492L176.521 55.4408C176.419 55.137 175.081 55.3422 174.774 55.3422Z" fill="black"/>
<path d="M237.392 55.3422H226.802V55.7517L227.212 55.9569C227.826 56.2643 227.826 57.9041 227.826 58.9258V69.8905C227.826 70.8126 227.826 72.5555 227.212 72.8594L226.802 73.0646V73.4742H232.662V73.0646L232.251 72.8594C231.638 72.5529 231.638 70.81 231.638 69.8905V66.3034H234.825C234.825 66.3034 236.263 66.2013 236.469 66.816L236.573 67.0212L236.983 67.1242L237.189 62.3077H236.675L236.573 62.6142C236.469 63.0246 235.133 63.1267 234.825 63.1267H231.637V58.7206H235.955C236.881 58.7206 237.395 58.9258 237.601 59.4383L237.704 59.7448H238.115L239.143 55.4408C239.139 55.137 237.803 55.3422 237.392 55.3422Z" fill="black"/>
<path d="M252.402 68.9719C251.272 69.894 249.523 70.4057 247.671 70.4057C245.819 70.4057 244.997 70.2022 244.997 70.2022V65.5926H247.671C247.671 65.5926 249.109 65.5926 249.315 66.1052L249.419 66.3095L249.829 66.4125L250.035 62.0064H249.521L249.419 62.3137C249.315 62.7224 248.082 62.7224 247.773 62.7224H244.997V58.6236H248.391C249.315 58.6236 250.241 58.6236 250.55 59.3414L250.652 59.6479H251.064L251.886 55.3447C251.886 55.3447 250.55 55.4469 250.138 55.4469H240.168V55.7543L240.579 55.9595C241.196 56.2668 241.196 57.9067 241.196 58.9283V69.8931C241.196 70.713 241.197 72.4551 240.682 72.862C240.515 72.9399 240.343 73.0084 240.168 73.0672V73.4767H251.787L252.917 69.0706H252.403L252.402 68.9719Z" fill="black"/>
<path d="M217.652 67.9512L217.447 68.1564C216.024 69.4794 214.15 70.2125 212.204 70.2067C210.249 70.2067 209.427 70.1036 209.427 70.1036V56.06C209.427 54.8305 209.427 52.6781 210.558 52.3707L210.969 52.2685V51.7568H204.184V52.2685L204.594 52.3707C205.52 52.7811 205.417 54.8305 205.417 56.06V69.1781C205.417 70.4066 205.417 72.4569 204.594 72.7652L204.184 72.9686V73.379H216.213L218.166 67.9477L217.652 67.9512Z" fill="black"/>
<path d="M105.063 81.9874V80.8592C104.857 80.8592 94.3744 81.577 89.1258 81.577C82.3396 81.577 72.4687 81.4748 72.4687 81.4748L27.1267 81.0644V80.1423L72.3662 80.0401C72.3662 80.0401 82.2371 80.1423 89.0233 80.1423H104.96C104.96 79.531 104.857 78.8098 104.857 78.1959C104.652 78.1959 94.1686 79.015 89.1258 79.015C82.3396 79.015 72.4687 78.6046 72.4687 78.6046H60.8509L45.5307 78.1959L27.3317 77.8886C27.3317 77.7855 27.4342 76.9656 27.4342 76.8634C28.0519 76.9656 28.6686 77.1708 30.8273 77.1708C33.707 77.1708 35.1464 76.453 35.1464 76.453C35.1464 76.453 37.2026 77.0643 40.0814 77.0643C41.4184 77.0643 44.2963 75.7318 46.1475 76.2443C49.0263 77.0643 50.1573 75.8348 50.1573 75.8348C50.1573 75.8348 50.8775 76.7569 52.111 76.9621C53.1396 77.1673 54.3731 76.4495 54.3731 76.4495C54.3731 76.4495 56.0175 77.6799 60.645 77.5768C66.4027 77.5768 67.9455 74.6079 67.9455 74.6079H68.1513C68.1513 74.6079 67.9455 75.427 68.2538 76.1448C68.8671 77.4773 70.6193 77.5794 70.6193 77.5794C70.4134 73.9923 71.9562 71.6356 71.9562 71.6356H72.1612L71.9562 72.3533C71.3429 74.9153 72.4696 77.2721 72.4696 77.2721L72.9839 76.9647C72.9839 76.9647 72.4696 75.3248 72.9839 73.0702C73.4981 70.8156 74.3243 69.6901 74.3243 69.6901H74.6327C74.6327 69.6901 74.0194 71.4312 74.1184 72.8659C74.1184 73.9932 74.7317 76.7604 76.9981 77.4781C78.745 78.0894 79.8769 76.7604 79.8769 76.7604C79.8769 76.7604 83.475 77.6833 86.4563 77.6833C93.4493 77.6833 95.0937 76.5552 95.0937 76.5552C95.0937 76.5552 95.608 77.376 99.2061 77.376C101.263 77.376 102.908 77.273 103.833 77.0677C104.142 77.0677 104.347 76.9656 104.553 76.9656C104.45 76.3543 104.347 75.7352 104.244 75.2192C102.291 64.2535 95.9164 54.8256 86.9706 48.7796L86.4563 50.2142C95.0937 55.9529 101.469 64.8691 103.319 75.5257C102.291 75.8339 100.851 76.2434 99.1036 76.2434C96.3272 76.2434 95.7105 75.3214 95.7105 75.3214C95.7105 75.3214 94.6819 76.0382 92.935 76.0382C91.3922 76.0382 90.0553 74.9118 90.0553 74.9118C90.0553 74.9118 88.3031 76.4486 85.5312 76.4486C82.0356 76.4486 80.2878 74.2971 79.671 73.3741C79.303 72.8252 78.9927 72.24 78.745 71.6277H78.4331C78.5356 72.0381 78.5356 72.4476 78.7406 72.9593C79.2549 74.1897 79.4608 74.6001 79.6667 75.0096C79.7692 75.2148 79.975 75.6209 79.4608 75.8295C79.1524 75.9317 78.9465 75.7265 78.8475 75.5213C78.6416 75.317 78.0249 74.3949 77.6131 73.0624C77.2022 71.6277 77.0997 70.6026 76.9998 69.7835H76.794C76.6439 70.801 76.6093 71.832 76.6906 72.8572C76.763 73.8038 76.9695 74.7354 77.3038 75.6243C77.354 75.7208 77.3885 75.8245 77.4063 75.9317C77.5097 76.3421 77.098 76.6495 76.6862 76.543C76.5222 76.481 76.3733 76.3851 76.2493 76.2615C76.1253 76.1379 76.0291 75.9895 75.9669 75.8261C74.425 73.3662 76.2753 68.5497 76.8921 66.9107C77.3969 65.5586 77.7406 64.1522 77.9162 62.7202C77.9162 62.7202 78.9439 61.0812 79.4581 59.9539C80.1774 58.5192 80.6917 57.1876 81.1034 56.7772C81.8227 56.0594 82.8556 54.4196 83.9823 52.3702C84.1882 51.9598 85.2167 49.8082 85.3183 49.2956C85.4217 48.8861 85.6276 48.4766 85.7301 48.0662C86.2443 46.0168 86.6552 43.8652 86.6552 43.5578C86.6552 43.0453 85.8326 42.737 85.8326 42.737C85.8326 42.737 85.3183 42.4297 84.8049 42.4297C84.4965 42.4297 84.0857 42.737 83.7764 42.8401C83.3655 43.0453 83.1631 42.9422 83.1631 42.9422C83.1631 42.9422 82.5499 42.6349 82.1355 42.737C81.8262 42.8401 81.5222 43.1474 81.2095 43.3483C80.6952 43.5535 80.5962 43.4504 80.5962 43.4504C80.5962 43.4504 80.0828 43.2452 79.671 43.4504C79.2593 43.5535 78.9509 43.7578 78.3341 44.2695C73.81 42.6305 69.0809 41.7075 64.0425 41.7075C41.6277 41.7075 23.4287 59.6413 23.1204 81.88V83.0081H105.067L105.063 81.9874ZM52.7278 73.7889C52.6253 73.6858 52.7278 73.6858 52.6253 73.5837C53.7563 69.9974 56.3268 62.7202 60.5425 57.0802C60.9534 57.2845 61.3652 57.5919 61.776 57.7971C58.8972 61.2864 54.8874 67.9507 52.7278 73.7889ZM55.4007 74.9162C56.2225 71.6364 58.2796 64.7705 62.9062 58.314C63.3171 58.6214 63.7288 58.8266 64.1406 59.134C61.0559 63.2328 57.3544 69.6901 55.6058 75.1214C55.4007 75.0183 55.5041 75.0183 55.4007 74.9162ZM58.588 75.8383H58.3794C58.9971 73.1733 60.7449 66.4077 65.0631 59.7487C65.474 60.0561 65.8849 60.2613 66.2967 60.5686C63.318 64.7705 59.9257 70.8165 58.5888 75.8383H58.588ZM61.6718 75.7352H61.4668C62.08 73.2763 63.523 67.3316 67.2244 61.1834C67.739 61.5938 68.1502 61.9014 68.458 62.1063C65.6834 66.2043 62.9071 71.3291 61.6727 75.7352H61.6718ZM72.4678 64.8735C71.6461 64.8735 70.515 64.5661 70.2066 63.9505C70.3092 65.0787 71.6461 65.9999 72.8796 66.103V66.2043C72.5712 66.3064 72.3653 66.3064 72.0569 66.3064C71.692 66.3081 71.3304 66.2376 70.9929 66.0992C70.6554 65.9607 70.3488 65.757 70.0908 65.4998C69.8327 65.2426 69.6284 64.937 69.4895 64.6007C69.3506 64.2643 69.2799 63.9039 69.2815 63.5401C69.2815 63.3349 69.2815 63.1297 69.3831 62.9289C70.515 63.8519 73.0855 65.1844 74.4224 63.2363V63.3393C74.0115 64.0536 73.3947 64.8735 72.4687 64.8735H72.4678ZM76.9937 58.5201C76.9659 58.6967 76.895 58.8638 76.7873 59.0067C76.6796 59.1497 76.5384 59.2641 76.3761 59.34C76.1197 59.4862 75.8788 59.6576 75.6568 59.8517C75.6568 59.9548 75.5534 59.8517 75.5534 59.8517C75.4424 59.7965 75.3388 59.7276 75.245 59.6465L75.1425 59.5452V58.8275C75.1425 58.8275 75.0392 58.418 75.1425 58.1097C75.245 57.7002 75.6568 57.3937 75.6568 57.3937L75.8627 57.495C75.7103 57.67 75.6041 57.8801 75.5534 58.1062C75.4509 58.3114 75.4509 58.824 75.5534 59.0292V59.2344L75.6568 59.3366C75.7123 59.2809 75.7847 59.245 75.8627 59.2344C75.9837 59.1124 76.1222 59.0088 76.2736 58.927C76.2736 58.927 75.8627 58.6188 76.0677 58.3158C76.2736 57.9063 76.681 58.1106 76.681 58.1106C76.7473 57.8079 76.782 57.4992 76.7843 57.1894L77.0927 57.2907C76.8903 57.3928 77.0962 57.9089 76.9937 58.5201ZM79.1524 44.6851C79.5642 44.4799 79.8725 44.1726 80.2834 44.0739C80.6943 43.9752 81.1061 44.0739 81.517 44.0739C81.8253 44.0739 82.443 43.5613 82.6489 43.5613C82.9345 43.5683 83.2151 43.6381 83.4706 43.7657C83.6765 43.8687 84.6017 43.2531 84.8075 43.2531C85.0134 43.2531 85.5268 43.2531 85.4208 43.8687C85.1569 45.2084 84.7431 46.5144 84.1873 47.7623C83.9814 48.3735 83.673 48.8896 83.3646 49.5087C83.0325 50.2681 82.6189 50.9895 82.1311 51.6602C80.3789 54.7348 78.7371 54.0179 75.2415 55.6578C72.5686 56.8881 71.4376 57.8093 70.9233 58.2197C70.7183 58.1167 70.5124 57.9124 70.204 57.8093C70.7183 57.2968 71.7459 56.5799 74.1105 55.3504C76.5784 54.1209 80.6908 52.3815 81.5135 50.9434C81.6168 50.8412 81.5135 50.739 81.411 50.636C80.7184 51.0917 79.997 51.5024 79.2514 51.8655C75.2415 53.9157 73.9072 54.4283 72.1551 55.2474C71.3333 55.6578 70.0989 56.4777 69.1764 57.0924C68.9705 56.9903 68.7655 56.7851 68.4562 56.5799C69.4232 55.8393 70.4557 55.1878 71.5409 54.6335C73.2931 53.7105 74.8315 52.9928 79.0473 50.5295C79.4581 50.3243 81.6177 48.9926 83.1596 47.8645C83.1596 47.7623 83.2621 47.5571 83.2621 47.4549C81.8227 48.2749 77.0936 50.8368 76.0651 51.3494C72.0552 53.3988 72.2611 53.1936 70.5133 54.1166C69.4461 54.6447 68.4461 55.2982 67.5346 56.0629C67.3287 55.8586 67.1237 55.7556 66.9213 55.5504C67.8465 54.9391 68.7725 54.3218 70.006 53.604C71.7582 52.681 72.0622 52.4758 75.9696 50.4264C78.0257 49.4013 81.5213 47.0445 83.475 45.8151C83.475 45.6107 83.475 45.6107 83.5784 45.5077C81.6247 46.635 75.9696 49.5043 75.0435 50.0169C71.0337 52.0663 70.6228 52.1685 68.875 53.0914C67.8465 53.604 66.8188 54.2187 66.202 54.7304C65.9962 54.6291 65.8928 54.4239 65.6878 54.3218C66.301 53.8092 67.44 53.0914 68.9775 52.1685C70.7297 51.1442 71.0337 51.042 75.0435 48.9926C75.3528 48.7874 77.3065 47.7623 79.2593 46.635C79.7735 46.3268 80.3903 45.9181 80.9046 45.6107C81.213 45.4055 81.6247 45.0982 81.9331 44.893L81.7272 44.7899C80.9046 45.0982 79.7735 45.7129 79.5685 45.9181C77.5124 47.1476 74.8377 48.2757 74.0159 48.6853C70.0016 50.7312 69.5934 50.836 67.8412 51.7563C66.8872 52.2897 65.9609 52.8708 65.0658 53.4975C64.8599 53.2931 64.7565 53.1901 64.5515 52.9849C65.3741 52.268 66.5052 51.5511 67.8412 50.8333C69.5934 49.9104 70.0008 49.8082 74.0106 47.7588C74.7308 47.3484 75.3475 47.041 75.8618 46.7337C75.7593 46.7319 77.508 45.8116 79.1524 44.6843V44.6851ZM65.7859 43.6609C69.5899 43.6609 73.2914 44.2721 76.7878 45.2999C76.0677 45.8124 75.1425 46.3241 73.909 46.9397C69.384 49.1952 68.7681 49.3987 66.8127 50.4238C65.5791 51.0391 64.5509 51.6541 63.728 52.2689C63.728 52.2689 62.9053 51.1416 62.3911 50.8342C61.8768 50.4238 60.8491 50.223 60.4374 50.0143C59.7181 49.6039 59.6147 49.403 58.5871 49.0922C57.6619 48.7848 57.1477 48.99 56.6334 48.887C56.2216 48.7848 55.6049 48.5796 54.7831 48.5796C54.3713 48.5796 53.6521 48.887 53.2403 48.99C52.627 49.0922 52.0068 48.7848 51.595 48.887C51.0807 48.99 50.464 49.4982 49.7447 49.6039C49.2304 49.7069 48.6137 49.6039 48.3044 49.7069C47.8935 49.8091 47.1743 50.5268 46.7625 50.629C46.3507 50.7312 45.4265 50.8342 45.529 51.552C45.6315 52.2697 47.0718 52.371 47.0718 52.371C47.0718 52.371 53.4462 53.294 59.6147 56.4751C58.6896 57.6015 57.8626 58.8327 57.0443 60.0613C56.53 59.9591 55.9141 59.7539 55.5024 59.6509C54.8891 59.5496 54.1655 59.8561 53.7546 59.8561C52.8294 59.8561 52.726 59.6509 51.6984 59.7539C50.8757 59.8561 50.8757 60.1635 50.1556 60.2665C49.7447 60.3687 49.1279 60.1635 48.3044 60.4717C47.8935 60.5739 47.2768 61.2916 46.8659 61.4968C46.5575 61.7012 45.9407 61.7012 45.4265 62.0094C45.0147 62.3168 45.1181 62.6207 44.3979 63.0337C43.8837 63.341 43.5753 63.238 43.061 63.6449C42.7526 63.8501 42.7526 64.3627 41.93 64.9774C40.9023 65.7965 41.0048 66.4121 41.1073 66.7238C41.4166 67.4416 42.9585 66.7238 42.9585 66.7238C42.9585 66.7238 48.0994 64.9774 54.4738 64.6744C52.8294 67.9533 51.4951 71.13 50.6699 73.0772C50.5001 73.5107 50.3628 73.9561 50.259 74.4097H50.1556C49.7447 74.2045 49.7447 73.5898 49.9497 72.4625C50.1547 71.3352 51.0807 69.0806 51.3891 68.568H51.0807C50.7732 69.0806 49.8472 70.8226 49.6422 71.233C49.3329 71.8443 49.2304 72.053 48.5103 73.4868C48.4078 73.692 47.9969 74.4097 47.5851 74.4097C47.2768 74.4097 46.9719 74.2045 46.9719 73.8972C46.9719 73.795 47.1778 73.4868 47.2803 73.3846C48.2063 72.053 48.7197 70.7205 48.8222 70.2088H48.5138C48.5138 70.2088 46.1484 75.434 41.3167 75.434C39.5646 75.434 37.9245 74.6149 37.9245 74.6149C37.9245 74.6149 35.5591 75.6392 32.4744 75.6392C30.0064 75.6392 28.4645 75.1275 27.9502 74.9223C31.1331 57.3928 46.3534 43.66 65.7859 43.66V43.6609Z" fill="black"/>
</svg>
