<svg width="277" height="110" viewBox="0 0 277 110" fill="none" xmlns="http://www.w3.org/2000/svg">
<path d="M121.89 79.6936H123.389V75.9408C123.389 73.9656 124.153 72.6113 125.85 72.6113C127.15 72.6959 127.575 73.5988 127.575 75.4894V79.6654H129.073V74.8686C129.073 72.6959 128.14 71.3979 126.048 71.3979C124.916 71.3979 123.842 71.9623 123.389 72.8652H123.361V71.5672H121.919V79.6936H121.89Z" fill="black"/>
<path d="M131.93 73.4584C132.524 72.9505 133.429 72.6401 134.278 72.6401C135.777 72.6401 136.286 73.3455 136.286 74.7563C135.692 74.7281 135.296 74.7281 134.702 74.7281C133.175 74.7281 130.941 75.3771 130.941 77.3805C130.941 79.1299 132.157 79.8917 133.91 79.8917C135.268 79.8917 136.059 79.1581 136.427 78.6502H136.455V79.6942H137.841C137.813 79.4403 137.784 79.017 137.784 78.1141V74.7563C137.784 72.5554 136.851 71.4268 134.532 71.4268C133.514 71.4268 132.609 71.7371 131.874 72.1886L131.93 73.4584ZM136.257 76.5622C136.257 77.7755 135.494 78.6784 133.995 78.6784C133.316 78.6784 132.496 78.2269 132.496 77.3522C132.496 75.9132 134.504 75.8003 135.296 75.8003C135.607 75.8003 135.918 75.8285 136.257 75.8285V76.5622Z" fill="black"/>
<path d="M140.16 79.6936H141.659V75.9408C141.659 73.9656 142.422 72.6113 144.119 72.6113C145.42 72.6959 145.844 73.5988 145.844 75.4893V79.6654H147.343V74.8686C147.343 72.6959 146.41 71.3979 144.317 71.3979C143.186 71.3979 142.111 71.9623 141.659 72.8652H141.63V71.5672H140.188V79.6936H140.16Z" fill="black"/>
<path d="M155.006 71.7371C154.582 71.5678 153.79 71.4268 153.196 71.4268C150.708 71.4268 149.067 73.2044 149.067 75.6592C149.067 77.973 150.764 79.8917 153.196 79.8917C153.734 79.8917 154.441 79.8353 155.063 79.5531L154.95 78.227C154.497 78.5373 153.847 78.6784 153.338 78.6784C151.415 78.6784 150.651 77.0983 150.651 75.6592C150.651 74.1356 151.584 72.6401 153.253 72.6401C153.734 72.6401 154.299 72.7529 154.865 72.9787L155.006 71.7371Z" fill="black"/>
<path d="M156.845 79.6949H158.344V71.6249H156.845V79.6949ZM158.429 68.1543H156.76V69.8473H158.429V68.1543Z" fill="black"/>
<path d="M161.398 73.4584C161.992 72.9505 162.897 72.6401 163.745 72.6401C165.244 72.6401 165.753 73.3455 165.753 74.7563C165.159 74.7281 164.764 74.7281 164.17 74.7281C162.614 74.7281 160.408 75.3771 160.408 77.3805C160.408 79.1299 161.624 79.8917 163.378 79.8917C164.735 79.8917 165.527 79.1581 165.895 78.6502H165.923V79.6942H167.337C167.309 79.4403 167.28 79.017 167.28 78.1141V74.7563C167.28 72.5554 166.347 71.4268 164.028 71.4268C163.01 71.4268 162.105 71.7371 161.37 72.1886L161.398 73.4584ZM165.753 76.5622C165.753 77.7755 164.962 78.6784 163.491 78.6784C162.812 78.6784 161.992 78.227 161.992 77.3522C161.992 75.9132 164 75.8003 164.792 75.8003C165.103 75.8003 165.414 75.8285 165.753 75.8285V76.5622Z" fill="black"/>
<path d="M171.324 67.8145H169.825V79.6936H171.324V67.8145Z" fill="black"/>
<path d="M186.398 68.9994C185.464 68.689 184.757 68.4351 183.145 68.4351C179.752 68.4351 177.292 70.6924 177.292 74.1066C177.292 77.6336 179.639 79.8628 183.145 79.8628C184.871 79.8628 185.917 79.5806 186.539 79.3831V73.6269H182.608V74.9249H184.927V78.2826C184.531 78.3673 184.248 78.4801 183.145 78.4801C180.855 78.4801 178.96 76.7589 178.96 74.163C178.96 71.68 180.657 69.8459 183.202 69.8459C184.644 69.8459 185.464 70.0998 186.256 70.6077L186.398 68.9994Z" fill="black"/>
<path d="M188.773 79.6942H190.272V76.0261C190.272 73.9945 191.148 72.7247 192.478 72.7247C192.732 72.7247 193.043 72.7529 193.298 72.8658V71.5396C192.987 71.4832 192.76 71.4268 192.308 71.4268C191.46 71.4268 190.583 72.0193 190.187 72.8658H190.159V71.6243H188.773V79.6942Z" fill="black"/>
<path d="M194.005 75.6592C194.005 77.973 195.673 79.8917 198.134 79.8917C200.566 79.8917 202.234 77.973 202.234 75.6592C202.234 73.2044 200.594 71.4268 198.134 71.4268C195.645 71.4268 194.005 73.2044 194.005 75.6592ZM195.589 75.6592C195.589 74.1355 196.522 72.6401 198.134 72.6401C199.717 72.6401 200.651 74.1355 200.651 75.6592C200.651 77.0983 199.887 78.6784 198.134 78.6784C196.352 78.6784 195.589 77.0983 195.589 75.6592Z" fill="black"/>
<path d="M211.001 71.624H209.502V75.3768C209.502 77.3238 208.738 78.7064 207.041 78.7064C205.74 78.6217 205.345 77.7188 205.345 75.8283V71.6522H203.846V76.4491C203.846 78.6217 204.779 79.9197 206.872 79.9197C208.003 79.9197 209.078 79.3554 209.53 78.4524H209.558V79.7504H211.001V71.624Z" fill="black"/>
<path d="M213.122 83.0238H214.621V78.5938H214.649C215.101 79.3274 215.922 79.8917 217.364 79.8917C219.796 79.8917 220.842 77.7473 220.842 75.5182C220.842 73.3455 219.711 71.4268 217.364 71.4268C215.922 71.4268 215.017 72.1604 214.621 72.7529H214.592V71.6243H213.15V83.0238H213.122ZM219.23 75.631C219.259 76.9008 218.608 78.6784 216.996 78.6784C215.299 78.6784 214.621 77.0136 214.621 75.6592C214.621 74.1638 215.413 72.6119 217.024 72.6119C218.636 72.6401 219.259 74.1638 219.23 75.631Z" fill="black"/>
<path d="M60.6645 30.4839H99.8322C102.321 30.4839 104.329 32.4873 104.329 34.9703V75.2918C104.329 77.7748 102.321 79.7782 99.8322 79.7782H90.8958C89.906 78.9035 88.6899 77.8877 88.2374 77.6055C87.6153 77.1823 87.1062 76.9001 87.389 76.3358C87.8698 75.3482 88.3506 74.0785 88.6899 74.1913C89.0293 74.3042 90.613 74.5299 91.0654 74.7556C91.2917 74.8685 92.1966 74.8685 93.1016 74.417C94.5721 73.7399 94.9115 72.6112 95.1377 72.4983C95.364 72.3855 95.8165 71.7083 95.8165 71.7083C95.8165 71.7083 96.1558 71.3697 96.1558 70.9182C96.2689 70.3539 96.3821 69.2252 95.9296 68.548C95.5902 67.9837 94.7984 67.1936 94.2328 66.9679C93.4409 66.6293 93.2147 66.4036 93.2147 65.8392C93.1016 65.3878 94.1197 65.2749 94.2328 64.4848C94.2328 64.0051 93.9783 63.5819 93.4975 63.5819V63.4126C93.8934 63.3562 94.5721 63.1304 94.459 62.4532C94.3459 61.776 93.8934 61.3246 93.8934 61.3246C93.8934 61.3246 93.7803 60.6474 94.1197 60.4216C94.5722 60.1959 95.5902 60.4216 96.3821 60.3088C97.1739 60.1959 97.9657 60.083 97.9657 59.293C97.9657 58.0515 97.1739 57.2614 96.3821 56.0199C95.5902 54.7783 94.7984 53.9883 94.6853 53.7625C94.5722 53.4239 94.5439 53.0007 94.5439 53.0007C94.5439 53.0007 95.2509 52.4081 95.4771 52.1824C95.873 51.7874 96.3821 51.2513 96.0427 50.5741C95.9296 50.2355 95.4771 50.2355 95.2509 49.8969C94.9115 49.5583 95.0246 48.8811 94.6853 48.5425C94.459 48.2039 94.459 47.5267 94.1197 46.9624C93.8934 46.2852 93.5541 45.1565 93.5541 45.1565C93.5541 45.1565 94.7701 44.3664 94.8832 44.0278C95.4488 42.6734 95.364 41.6859 95.364 41.6859C95.364 41.6859 95.8165 39.88 94.6853 38.7513C94.3459 38.2999 93.8934 37.8484 93.441 37.6227C92.7622 37.1712 92.0835 36.7197 91.631 36.494C90.8392 36.1554 89.8211 35.9015 89.0293 35.6757C88.2374 35.3371 87.8981 35.3371 87.5587 35.3371C87.1062 35.45 86.6538 35.45 86.4275 35.3371C86.0882 35.3371 84.7307 34.8857 83.9389 34.9985C83.2602 34.9985 82.3552 35.45 80.8846 35.5629C79.4141 35.7886 78.1698 35.45 77.3779 35.6757C76.5861 36.0143 76.1336 35.9015 75.6811 36.1272C75.2287 36.3529 74.6631 36.494 74.6631 36.494C74.6631 36.494 73.8712 36.7197 73.5319 36.8326C73.3056 37.0583 72.6269 37.5098 72.6269 37.5098L71.9482 38.187C71.7219 38.187 71.0432 38.5256 70.9301 38.7513L70.4776 39.2028C70.4776 39.2028 70.1383 39.3157 69.912 39.5414C69.6858 39.7671 69.2333 40.4443 69.0071 40.5572C68.6677 40.6701 68.3001 41.0087 67.5082 41.6859C66.7164 42.4759 65.8114 43.6046 65.6983 43.9432C65.5852 44.1689 65.0196 45.2976 65.0196 45.5233C64.9065 45.8619 64.6802 46.9906 64.454 47.2163C64.3409 47.442 63.6622 48.7964 63.6622 49.0222C63.549 49.3608 63.549 50.4894 63.4359 50.828C63.3228 51.1666 62.8703 52.521 62.8703 53.5368C62.8703 54.4397 63.4359 55.1169 63.4359 55.4555C63.549 55.7941 63.7753 57.3743 63.7753 58.0515C63.8884 58.6158 64.4257 60.5345 64.652 60.986C64.7651 61.4374 65.2176 62.0018 65.2176 62.0018C65.2176 62.0018 65.5004 63.1022 66.1791 63.7794C66.8578 64.5695 67.5365 65.3878 67.8759 65.6135C68.5546 66.1778 68.7243 67.5886 68.7243 67.5886C68.7243 67.5886 67.6779 67.7862 67.4517 68.0119C67.2254 68.3505 66.2922 70.7489 65.3307 72.3855C64.4257 73.9374 62.7855 75.4611 62.7006 76.1665C62.6158 76.7872 63.4359 77.3516 63.2097 77.4644C63.0683 77.5209 62.1068 78.7624 61.3432 79.7782H60.6645C58.1758 79.7782 56.168 77.7748 56.168 75.2918V34.9703C56.168 32.4873 58.2041 30.4839 60.6645 30.4839Z" fill="black"/>
<path d="M113.717 48.8246C113.717 50.4612 113.689 52.916 113.604 54.8348C113.576 55.8506 113.321 56.4995 110.324 56.4995C109.447 56.4995 109.447 56.7253 109.447 57.1485C109.447 57.4871 109.447 57.6282 109.758 57.6282C110.013 57.6282 110.182 57.5436 115.782 57.5436C130.685 57.5436 129.497 57.6282 129.922 57.6282C130.12 57.6282 130.261 57.5436 130.289 57.3178C130.94 53.4804 131.732 50.3483 131.732 50.179C131.732 49.8404 131.647 49.7276 130.94 49.7276C130.6 49.7276 130.657 49.9815 130.402 50.7998C128.79 55.7095 126.867 56.3867 121.607 56.3867C118.723 56.3867 117.648 56.1892 117.592 54.8348C117.507 52.9443 117.478 50.4612 117.478 48.8246V39.5132C117.478 36.8044 117.507 35.9015 117.563 34.152C117.592 31.9229 118.242 31.6125 121.551 31.6125C121.975 31.6125 121.975 31.3022 121.975 30.9636C121.975 30.7378 121.89 30.4839 121.636 30.4839C121.325 30.4839 118.016 30.625 115.584 30.625C113.18 30.625 110.069 30.4839 109.758 30.4839C109.475 30.4839 109.419 30.7378 109.419 30.9636C109.419 31.3022 109.419 31.6125 109.843 31.6125C112.954 31.6125 113.604 31.9229 113.661 34.152C113.689 35.9015 113.746 36.8044 113.746 39.5132V48.8246H113.717Z" fill="black"/>
<path d="M136.003 34.6332C137.134 34.6332 137.982 33.6456 137.982 32.6298C137.982 31.614 137.134 30.6265 136.003 30.6265C134.872 30.6265 134.023 31.614 134.023 32.6298C134.023 33.6456 134.872 34.6332 136.003 34.6332Z" fill="black"/>
<path d="M169.684 55.965C163.859 55.965 163.208 51.2246 163.208 49.5034C163.208 43.2676 166.178 41.4617 168.581 41.4617C170.561 41.4617 170.844 42.675 170.929 43.2393C171.353 45.3274 171.494 45.7224 172.71 45.7224C174.124 45.7224 174.718 44.5373 174.718 44.0858C174.718 43.2958 173.728 40.4741 168.525 40.4741C163.604 40.4741 159.871 43.8883 159.871 49.5034C159.871 54.9492 163.35 58.1095 167.761 58.1095C170.278 58.1095 172.484 57.0937 174.435 54.8646C174.662 54.6388 174.746 54.4413 174.746 54.3002C174.746 54.0181 174.294 53.7641 174.181 53.7641C173.983 53.7641 173.841 54.1027 173.53 54.3567C172.767 55.0056 171.098 55.965 169.684 55.965Z" fill="black"/>
<path d="M189.565 49.2777C189.565 52.4944 188.801 57.0937 184.305 57.0937C179.836 57.0937 179.101 52.4944 179.101 49.2777C179.101 45.5531 180.345 41.4617 184.305 41.4617C188.32 41.4335 189.565 45.5531 189.565 49.2777ZM193.184 49.2777C193.184 44.1423 189.395 40.4741 184.305 40.4741C179.242 40.4741 175.481 44.2834 175.481 49.2777C175.481 54.3284 179.101 58.1095 184.305 58.1095C189.649 58.0813 193.184 54.5824 193.184 49.2777Z" fill="black"/>
<path d="M137.558 45.8055V54.0165C137.558 56.1892 137.643 56.6406 139.311 56.6406H141.715C142.705 56.6406 143.044 56.2456 143.271 55.7377C143.412 55.3991 143.497 52.6903 143.497 50.2637V45.0436C143.497 43.7174 143.157 42.9556 141.263 42.7581C140.952 42.7299 140.923 42.5606 140.923 42.3066C140.923 41.9962 141.036 41.8269 141.234 41.7705C145.561 40.8958 146.099 39.9082 146.551 39.9082C146.636 39.9082 146.664 40.0211 146.664 40.3315C146.664 40.5572 146.579 41.4037 146.579 43.0685C148.559 41.7423 150.51 40.4443 152.546 40.4443C153.847 40.4443 157.58 40.6983 157.58 46.1441V55.258C157.58 55.907 157.693 56.6406 160.069 56.6406C160.437 56.6406 160.437 56.8664 160.437 57.1485C160.437 57.3743 160.437 57.6282 159.899 57.6282C158.768 57.6282 158.061 57.5436 156.053 57.5436C152.971 57.5436 152.348 57.6282 152.066 57.6282C151.839 57.6282 151.783 57.3743 151.783 57.1767C151.783 56.9792 151.868 56.6406 152.32 56.6406C154.158 56.6406 154.498 56.4995 154.498 55.2298V48.4296C154.498 44.9025 154.187 42.5323 150.227 42.5323C148.785 42.5323 146.721 43.8303 146.579 44.2818V54.0165C146.579 56.1892 146.664 56.6406 148.333 56.6406C149.351 56.6406 149.436 56.6688 149.436 57.1485C149.436 57.3743 149.436 57.6282 149.04 57.6282C148.842 57.6282 143.751 57.5436 140.358 57.5436C136.908 57.5436 132.072 57.6282 131.506 57.6282C131.195 57.6282 131.195 57.4025 131.195 57.205C131.195 56.7253 131.223 56.6406 132.637 56.6406C133.627 56.6406 133.967 56.2456 134.193 55.7377C134.334 55.3991 134.419 52.6903 134.419 50.2637V45.0436C134.419 43.7174 134.08 42.9556 132.157 42.7581C131.846 42.7299 131.817 42.5606 131.817 42.3066C131.817 41.9962 131.93 41.8269 132.128 41.7705C136.483 40.8958 136.992 39.9082 137.445 39.9082C137.586 39.9082 137.671 40.1057 137.671 40.3315C137.756 40.5008 137.558 40.8676 137.558 45.8055Z" fill="black"/>
<path d="M198.784 34.7455V54.0174C198.784 56.1901 198.869 56.6416 200.537 56.6416H202.517C203.507 56.6416 203.846 56.2465 204.072 55.7386C204.214 55.4 204.299 52.6912 204.299 50.2646V45.0445C204.299 43.7184 203.959 42.9565 202.064 42.759C201.753 42.7308 201.725 42.5615 201.725 42.3075C201.725 41.9972 201.838 41.8279 202.036 41.7714C206.391 40.8967 206.929 39.9091 207.381 39.9091C207.466 39.9091 207.494 40.022 207.494 40.3324C207.494 40.5581 207.409 41.4046 207.409 43.0694C209.389 41.7432 211.34 40.4453 213.376 40.4453C214.677 40.4453 218.41 40.6992 218.41 46.145V55.2589C218.41 55.9079 218.467 56.6416 220.842 56.6416C221.21 56.6416 221.21 56.8673 221.21 57.1495C221.21 57.3752 221.21 57.6291 220.673 57.6291C219.541 57.6291 218.919 57.5445 216.883 57.5445C213.801 57.5445 213.178 57.6291 212.867 57.6291C212.641 57.6291 212.613 57.3752 212.613 57.1777C212.613 56.9802 212.698 56.6416 213.15 56.6416C214.988 56.6416 215.328 56.5005 215.328 55.2307V48.4305C215.328 44.9035 215.017 42.5333 211.057 42.5333C209.615 42.5333 207.551 43.8312 207.409 44.2827V54.0174C207.409 56.1901 207.494 56.6416 209.163 56.6416C210.181 56.6416 210.266 56.6698 210.266 57.1495C210.266 57.3752 210.266 57.6291 209.898 57.6291C209.7 57.6291 204.751 57.5445 201.442 57.5445C198.134 57.5445 193.354 57.6291 192.958 57.6291C192.647 57.6291 192.647 57.4034 192.647 57.2059C192.647 56.7262 192.675 56.6416 194.089 56.6416C194.881 56.6416 195.221 56.2465 195.447 55.7386C195.588 55.4 195.673 50.3775 195.673 48.7409V35.4509C195.673 32.1496 195.56 31.6981 193.467 31.5006C193.241 31.4724 193.128 31.3031 193.128 31.0491C193.128 30.7388 193.241 30.5412 193.439 30.513C196.522 29.9769 198.36 28.8765 198.727 28.8765C198.869 28.8765 198.954 29.074 198.954 29.2997C198.982 29.4408 198.784 29.8076 198.784 34.7455Z" fill="black"/>
<path d="M220.701 63.1318H109.843V63.9219H220.701V63.1318Z" fill="black"/>
<path d="M223.105 73.7122H223.473V72.7529H223.784L224.406 73.7122H224.773L224.151 72.7529C224.491 72.7529 224.717 72.4989 224.717 72.1321C224.717 71.7088 224.462 71.5113 223.953 71.5113H223.105V73.7122ZM223.473 71.7935H223.897C224.123 71.7935 224.349 71.8781 224.349 72.1321C224.349 72.4143 224.18 72.4707 223.897 72.4707H223.473V71.7935ZM222.2 72.6118C222.2 71.6242 222.907 70.8906 223.84 70.8906C224.773 70.8906 225.48 71.6524 225.48 72.6118C225.48 73.5993 224.773 74.333 223.84 74.333C222.879 74.3612 222.2 73.5993 222.2 72.6118ZM221.832 72.6118C221.832 73.7122 222.737 74.6151 223.84 74.6151C224.943 74.6151 225.848 73.7122 225.848 72.6118C225.848 71.5113 224.943 70.6084 223.84 70.6084C222.709 70.6084 221.832 71.5113 221.832 72.6118Z" fill="black"/>
<path d="M109.843 79.6957H111.427V74.6731H115.528V73.2623H111.427V70.0456H115.725V68.6348H109.843V79.6957Z" fill="black"/>
<path d="M117.789 79.6948H119.288V71.6248H117.789V79.6948ZM117.705 69.819H119.373V68.126H117.705V69.819Z" fill="black"/>
</svg>
