<svg width="275" height="110" viewBox="0 0 275 110" fill="none" xmlns="http://www.w3.org/2000/svg">
<path d="M33.4914 42.6821C33.4914 42.6821 58.447 36.3892 67.5514 36.2801C77.3813 36.1709 81.2262 37.626 83.1124 41.9182C84.5633 45.2647 81.4439 48.3203 81.4439 48.3203C81.4439 48.3203 87.175 49.6661 90.3307 52.2124C92.5071 53.8857 92.6159 55.9954 92.6159 55.9954C92.6159 55.9954 94.1756 57.3413 94.5021 57.7778C94.5021 57.7778 91.3826 57.2685 90.2219 57.1594C73.21 54.213 47.4926 54.3222 29.4288 73.4919C28.2681 74.765 29.32 72.3279 34.3256 65.9622C47.4926 48.7931 68.8935 47.9565 68.8935 47.9565C68.8935 47.9565 67.9504 44.7191 58.447 43.446C52.3894 42.6821 33.4914 42.6821 33.4914 42.6821Z" fill="black"/>
<path d="M99.0739 72.6559H98.1309V66.5812H99.4729C100.09 66.5812 100.634 66.5812 100.924 66.9086C101.359 67.236 101.54 67.6361 101.54 68.2545C101.54 69.2002 101.033 69.8186 100.198 69.9278L102.302 72.6559H101.141L99.1465 69.9278H99.0377C99.0739 69.9278 99.0739 72.6559 99.0739 72.6559ZM99.4004 69.0911C100.235 69.0911 100.67 68.982 100.67 68.2545C100.67 67.527 100.235 67.3087 99.4004 67.3087H99.1828V69.0911H99.4004ZM104.297 66.4721H107.634V67.3087H105.24V68.8729H107.634V69.7095H105.24V71.7101H107.634V72.5468H104.297V66.4721ZM112.422 72.6559H111.515V67.4179H109.956V66.5812H114.127V67.4179H112.567V72.6559H112.422ZM116.412 66.4721H117.464V72.5468H116.412V66.4721ZM121.527 72.6559H120.584V66.5812H121.926C122.542 66.5812 123.086 66.5812 123.377 66.9086C123.812 67.236 123.993 67.6361 123.993 68.2545C123.993 69.2002 123.485 69.8186 122.651 69.9278L124.755 72.6559H123.594L121.599 69.9278H121.49V72.6559H121.527ZM121.744 69.0911C122.579 69.0911 123.014 68.982 123.014 68.2545C123.014 67.527 122.579 67.3087 121.744 67.3087H121.636V69.0911H121.744ZM126.859 66.4721H130.196V67.3087H127.802V68.8729H130.196V69.7095H127.802V71.7101H130.196V72.5468H126.859V66.4721ZM137.922 68.7637C137.922 69.0911 137.813 69.273 137.596 69.6004L136.036 72.8378L134.476 69.4912C134.367 69.273 134.258 68.982 134.15 68.7637C134.15 69.0911 134.15 69.273 134.041 69.6004L133.424 72.6195H132.481L133.932 66.3266L135.709 70.2188C135.709 70.3279 135.927 70.6553 136.036 71.0554C136.145 70.728 136.253 70.437 136.362 70.2188L138.14 66.3266L139.591 72.6195H138.647L138.031 69.6004C138.031 69.4913 138.031 69.2002 137.922 68.7637ZM141.767 66.4721H145.104V67.3087H142.71V68.8729H145.104V69.7095H142.71V71.7101H145.104V72.5468H141.767V66.4721ZM148.042 66.2539L151.923 70.0369C152.141 70.2551 152.359 70.5461 152.54 70.7644V66.5812H153.483V72.8741L149.529 69.0911L148.913 68.4727V72.6559H147.97V66.2539H148.042ZM158.38 72.6559H157.437V67.4179H155.877V66.5812H160.048V67.4179H158.489V72.6559H158.38ZM165.38 73.7835H164.873V65.3081H165.38V73.7835ZM171.112 66.4721H172.671C173.288 66.4721 173.832 66.4721 174.122 66.7995C174.557 67.1269 174.739 67.527 174.739 68.0726C174.739 68.691 174.412 69.1275 173.905 69.3457C174.63 69.4549 175.065 70.0733 175.065 70.8008C175.065 71.31 174.848 71.7465 174.557 72.0739C174.122 72.5104 173.506 72.5104 172.671 72.5104H171.112C171.112 72.4376 171.112 66.4721 171.112 66.4721ZM172.49 69.0911C173.433 69.0911 173.759 68.8729 173.759 68.2545C173.759 67.527 173.324 67.3087 172.49 67.3087H172.055V69.0911H172.49ZM172.49 71.8193C172.998 71.8193 173.433 71.8193 173.651 71.601C173.868 71.3828 174.086 71.1645 174.086 70.8735C174.086 70.437 173.868 70.146 173.651 70.0369C173.433 69.9278 173.143 69.9278 172.816 69.9278H172.2V71.9284H172.526V71.8193H172.49ZM177.604 66.4721H180.941V67.3087H178.547V68.8729H180.941V69.7095H178.547V71.7101H180.941V72.5468H177.604V66.4721ZM183.771 66.2539L187.652 70.0369C187.87 70.2551 188.087 70.5461 188.269 70.7644V66.5812H189.212V72.8741L185.258 69.0911L184.641 68.4727V72.6559H183.698V66.2539H183.771ZM192.113 66.4721H195.451V67.3087H193.057V68.8729H195.451V69.7095H193.057V71.7101H195.451V72.5468H192.113V66.4721ZM198.497 66.4721H201.835V67.3087H199.441V68.7637H201.835V69.6004H199.441V72.4376H198.497V66.4721ZM204.337 66.4721H205.28V72.5468H204.337V66.4721ZM210.177 72.6559H209.234V67.4179H207.674V66.5812H211.846V67.4179H210.286V72.6559H210.177ZM214.24 70.9463C214.349 71.4555 214.748 71.7829 215.401 71.7829C216.053 71.7829 216.344 71.4555 216.344 70.8371C216.344 70.2188 215.908 70.1096 215.292 69.7823C214.24 69.273 213.623 68.8365 213.623 67.8907C213.623 66.945 214.349 66.2175 215.509 66.2175C216.452 66.2175 217.069 66.5449 217.287 67.2724L216.561 67.7089C216.344 67.2724 216.053 67.1996 215.618 67.1996C215.11 67.1996 214.784 67.527 214.784 67.9271C214.784 68.5455 215.292 68.6546 215.945 68.982C216.997 69.4913 217.504 69.9278 217.504 70.7644C217.504 71.9284 216.779 72.6559 215.509 72.6559C214.457 72.6559 213.841 72.1466 213.623 71.31L214.24 70.9463ZM222.836 73.7835H222.329V65.3081H222.836V73.7835ZM228.676 66.4721H229.619V71.7101H231.796V72.5468H228.568V66.4721H228.676ZM234.081 66.4721H235.024V72.5468H234.081V66.4721ZM237.853 66.4721H241.19V67.3087H238.796V68.7637H241.19V69.6004H238.796V72.4376H237.853V66.4721ZM243.185 66.4721H246.523V67.3087H244.128V68.8729H246.523V69.7095H244.128V71.7101H246.523V72.5468H243.185V66.4721Z" fill="black"/>
<path d="M100.632 51.7029C101.067 53.4852 102.409 54.431 104.404 54.431C106.29 54.431 107.524 53.267 107.524 51.4846C107.524 49.5931 106.073 49.0838 104.078 48.1381C100.523 46.3557 98.6369 45.0098 98.6369 42.0634C98.6369 38.9352 100.922 36.6072 104.586 36.6072C107.524 36.6072 109.482 37.7712 110.208 39.8445L107.705 41.1177C106.98 39.8445 106.036 39.3353 104.767 39.3353C102.99 39.3353 101.938 40.281 101.938 41.8452C101.938 43.7367 103.497 44.3551 105.71 45.3008C109.156 46.865 110.824 48.32 110.824 51.1572C110.824 54.8311 108.43 57.2319 104.368 57.2319C101.031 57.2319 98.8182 55.6678 98.0928 52.7214C98.129 52.7577 100.632 51.7029 100.632 51.7029ZM123.085 47.8107L116.41 37.0073H119.748L123.81 43.7003C123.919 43.8094 124.245 44.3187 124.644 45.2645C124.862 44.6461 125.152 44.1004 125.479 43.5912L129.759 37.0073H132.987L126.204 47.7016V56.7226H123.085V47.8107ZM155.041 44.3551C154.823 45.3008 154.606 46.1375 154.098 47.0832L148.983 57.5593L143.869 46.865C143.434 46.0283 143.143 45.1917 142.926 44.3551C142.926 45.3008 142.708 46.2466 142.599 47.0832L140.496 56.8318H137.557L142.164 36.3162L148.004 48.6837C148.222 49.0111 148.512 49.9568 149.056 51.4119C149.491 50.2479 149.89 49.4112 150.217 48.6837L155.839 36.3162L160.627 56.8318H157.689L155.512 47.0832C155.367 46.6831 155.259 45.8465 155.041 44.3551ZM169.55 37.0437H180.504V39.8809H172.815V44.7916H180.649V47.6288H172.815V54.0309H180.649V56.8681H169.695V37.08H169.55V37.0437ZM197.335 56.8318H194.107V39.8809H188.883V37.0437H202.449V39.8809H197.226V56.8318H197.335ZM212.787 56.8318H209.776V37.0437H214.274C216.378 37.0437 217.938 37.2619 219.171 38.2077C220.332 39.1534 221.057 40.7176 221.057 42.4999C221.057 45.6282 219.498 47.4106 216.559 47.8471L223.342 56.8681H219.788L213.222 48.0653H212.896V56.8681H212.787V56.8318ZM213.513 45.5191C216.342 45.5191 217.684 45.1917 217.684 42.7909C217.684 40.3902 216.342 39.8445 213.513 39.8445H212.896V45.4827C212.896 45.5191 213.513 45.5191 213.513 45.5191ZM241.007 51.7029H233.281L230.996 56.7226H227.659L237.162 36.207L246.666 56.7226H243.329L241.007 51.7029ZM239.847 49.0838L237.852 44.5733C237.634 44.0641 237.416 43.3002 237.126 42.3908C236.908 43.3366 236.618 44.0641 236.401 44.5733L234.406 49.0838H239.847Z" fill="black"/>
<path d="M246.013 37.2248C246.449 37.6613 246.63 38.1706 246.63 38.789C246.63 39.4073 246.412 39.953 246.013 40.3531C245.578 40.7896 244.962 40.9715 244.454 40.9715C243.837 40.9715 243.293 40.7532 242.894 40.3531C242.459 39.9166 242.277 39.4073 242.277 38.789C242.277 38.1706 242.495 37.625 242.894 37.2248C243.293 36.8247 243.837 36.6064 244.454 36.6064C244.962 36.6064 245.469 36.8247 246.013 37.2248ZM245.796 37.4431C245.361 37.0066 244.962 36.9338 244.454 36.9338C243.946 36.9338 243.402 37.1521 243.112 37.4431C242.676 37.8796 242.495 38.2797 242.495 38.789C242.495 39.2982 242.713 39.8438 243.003 40.1348C243.438 40.5713 243.837 40.6441 244.345 40.6441C244.853 40.6441 245.397 40.4258 245.687 40.1348C246.013 39.8075 246.195 39.2982 246.195 38.789C246.304 38.2797 246.122 37.8796 245.796 37.4431ZM245.469 38.2797C245.469 38.6071 245.252 38.8981 244.853 38.8981L245.361 40.0621H244.853L244.345 38.8981H243.837V40.0621H243.402V37.5522H244.345C245.179 37.5522 245.469 37.7705 245.469 38.2797ZM243.91 37.8796V38.7162H244.345C244.78 38.7162 245.07 38.6071 245.07 38.2797C245.07 37.9523 244.853 37.8432 244.345 37.8432C244.345 37.8796 243.91 37.8796 243.91 37.8796Z" fill="black"/>
</svg>
