<svg width="275" height="110" viewBox="0 0 275 110" fill="none" xmlns="http://www.w3.org/2000/svg">
<path fill-rule="evenodd" clip-rule="evenodd" d="M39.4136 81.3052H37.9444V79.2651H39.4136V78.2954C39.4136 77.3132 39.6522 76.545 40.1922 76.0035C40.6945 75.4745 41.3978 75.2353 42.327 75.2353C42.6033 75.2353 42.9047 75.2731 43.1684 75.2982C43.4321 75.336 43.6707 75.399 43.8089 75.4746V77.4517C43.7084 77.3887 43.5703 77.3132 43.3693 77.288C43.1684 77.2502 43.0679 77.2124 42.867 77.2124C42.5028 77.2124 42.2015 77.3132 42.0005 77.5147C41.7996 77.7161 41.6992 78.0184 41.6992 78.3962V79.1896H43.6079V81.2422H41.6992V87.5514H39.4136V81.3052ZM46.3455 77.6154C46.1195 77.6154 45.8809 77.5524 45.68 77.4517C45.479 77.3509 45.3158 77.1746 45.1776 76.9731C45.0772 76.8094 45.0144 76.6079 45.0144 76.3435C45.0144 76.1042 45.0772 75.8649 45.1776 75.7012C45.2781 75.5375 45.4414 75.3612 45.68 75.2353C45.8809 75.1345 46.1195 75.059 46.3455 75.059C46.5841 75.059 46.8227 75.1345 47.0236 75.2353C47.2246 75.336 47.3501 75.4997 47.5259 75.7012C47.6264 75.8649 47.6892 76.0664 47.6892 76.3435C47.6892 76.5702 47.6264 76.8094 47.5259 76.9731C47.3878 77.1494 47.2497 77.3132 47.0236 77.4517C46.785 77.5776 46.5464 77.6154 46.3455 77.6154ZM45.1776 79.1896H47.4883V87.5766H45.1776V79.1896ZM49.6356 79.1896H51.8709V80.3733H51.9086C52.1095 80.0333 52.4737 79.6933 52.9132 79.4288C53.3779 79.1644 53.8802 78.9881 54.4829 78.9881C55.1234 78.9881 55.6257 79.1266 56.128 79.4288C56.6303 79.6933 56.9945 80.134 57.2708 80.7007C57.5345 81.28 57.6977 81.8845 57.6977 82.6149V87.5892H55.3871V82.892C55.3871 82.5519 55.3243 82.2119 55.1862 81.9852C55.0606 81.746 54.8848 81.5067 54.6211 81.3808C54.3825 81.2422 54.0811 81.1793 53.7797 81.1793C53.4532 81.1793 53.1141 81.2422 52.8504 81.406C52.5742 81.5823 52.3481 81.7838 52.1723 82.1112C52.0091 82.4134 51.9463 82.7534 51.9463 83.1186V87.5514H49.6356V79.1896ZM70.3308 79.1896H72.5661V80.3607H72.6038C72.8047 80.0333 73.1689 79.6933 73.6084 79.4288C74.073 79.1518 74.5753 78.9881 75.1781 78.9881C75.8185 78.9881 76.3208 79.1266 76.8232 79.4288C77.3255 79.6933 77.6896 80.134 77.9659 80.7007C78.2296 81.2674 78.3929 81.8719 78.3929 82.6149V87.5766H76.0822V82.8794C76.0822 82.5393 76.0195 82.2119 75.8813 81.9727C75.7557 81.746 75.5799 81.5067 75.3162 81.3682C75.0776 81.2422 74.7762 81.1667 74.4749 81.1667C74.1484 81.1667 73.8093 81.2422 73.5456 81.406C73.2693 81.5697 73.0433 81.7712 72.8675 82.1112C72.7042 82.4134 72.6414 82.7408 72.6414 83.1186V87.5514H70.3308V79.1896ZM84.4206 87.7781C83.5834 87.7781 82.8132 87.5766 82.11 87.1736C81.4067 86.7707 80.9044 86.2669 80.5026 85.5995C80.1007 84.9195 79.8998 84.1891 79.8998 83.3453C79.8998 82.5393 80.1007 81.7712 80.5026 81.0911C80.8793 80.4237 81.4444 79.8948 82.11 79.4918C82.7881 79.114 83.5918 78.8873 84.4206 78.8873C84.9982 78.8873 85.5006 78.9503 86.0029 79.114C86.5052 79.2903 86.907 79.4918 87.2712 79.7562C87.6103 79.9955 87.9116 80.2978 88.1126 80.5622L86.6056 81.9349C86.367 81.6704 86.0657 81.3934 85.7266 81.2296C85.4001 81.0282 84.9982 80.9652 84.5587 80.9652C84.1192 80.9652 83.755 81.0659 83.416 81.2296C83.0895 81.4311 82.7881 81.7334 82.6123 82.0734C82.4114 82.4008 82.3109 82.8416 82.3109 83.2446C82.3109 83.7105 82.4114 84.0883 82.6123 84.4157C82.8132 84.7558 83.0895 85.058 83.416 85.2595C83.755 85.461 84.1569 85.5617 84.5587 85.5617C85.0234 85.5617 85.4001 85.461 85.7266 85.2973C86.0657 85.0958 86.4047 84.8187 86.6684 84.5543L88.1754 85.9269C87.8112 86.4055 87.3089 86.8084 86.6308 87.1359C86.0029 87.6018 85.262 87.7781 84.4206 87.7781ZM90.825 77.6028C90.5864 77.6028 90.3478 77.5398 90.1469 77.4391C89.946 77.3383 89.7827 77.1746 89.6446 76.9731C89.519 76.7717 89.4814 76.5953 89.4814 76.3309C89.4814 76.0916 89.5441 75.8649 89.6446 75.6886C89.7451 75.5249 89.9209 75.3612 90.1469 75.2227C90.3478 75.1219 90.5864 75.059 90.825 75.059C91.0511 75.059 91.2897 75.1219 91.4906 75.2227C91.6915 75.3234 91.8297 75.4871 91.9929 75.6886C92.0934 75.8649 92.1562 76.0664 92.1562 76.3309C92.1562 76.5702 92.0934 76.7968 91.9929 76.9731C91.8548 77.1369 91.7292 77.3006 91.4906 77.4391C91.252 77.5776 91.026 77.6028 90.825 77.6028ZM89.6446 79.1896H91.9552V87.5766H89.6446V79.1896ZM104.513 75.399H106.824V87.5766H104.513V75.399ZM63.2985 87.7529C62.8213 87.7529 62.3943 87.6522 61.892 87.4759C61.3897 87.3122 60.9878 87.0099 60.586 86.6825C60.2093 86.3425 59.8451 85.8765 59.6065 85.2973C59.3805 84.7306 59.2423 84.1261 59.2423 83.3831C59.2423 82.6527 59.3805 82.0104 59.6065 81.4689C59.8451 80.9022 60.1842 80.4615 60.5483 80.0963C60.9125 79.7688 61.3897 79.4666 61.892 79.2903C62.3943 79.1266 62.8589 79.0636 63.3236 79.0636C63.9012 79.0636 64.3282 79.1644 64.7677 79.3281C65.2072 79.4918 65.5337 79.7688 65.81 80.0333V79.1896H68.1206V87.6144H65.81V86.6447C65.5337 86.947 65.1696 87.2492 64.7677 87.4507C64.3282 87.6522 63.8636 87.7529 63.2985 87.7529ZM63.7254 85.6751C64.0268 85.6751 64.3282 85.5995 64.6045 85.4988C64.8682 85.398 65.1068 85.2343 65.27 84.995C65.4333 84.7935 65.6091 84.5291 65.7347 84.2646C65.8351 83.9876 65.9105 83.6853 65.9105 83.3831C65.9105 83.0809 65.8351 82.7786 65.7347 82.5142C65.6342 82.2497 65.5086 81.9727 65.27 81.8089C65.1068 81.6074 64.8305 81.4689 64.6045 81.3052C64.3282 81.2045 64.0268 81.1415 63.7254 81.1415C63.424 81.1415 63.0975 81.2045 62.8213 81.3052C62.5576 81.406 62.2939 81.5697 62.118 81.7712C61.9171 81.9727 61.7915 82.2497 61.6534 82.4764C61.5529 82.7534 61.4902 83.0557 61.4902 83.3831C61.4902 83.6853 61.5529 84.0253 61.6534 84.2898C61.7539 84.5669 61.9171 84.8313 62.118 84.995C62.319 85.1965 62.5952 85.335 62.8213 85.4988C63.0975 85.6373 63.424 85.6751 63.7254 85.6751ZM97.5811 87.7529C97.1165 87.7529 96.6769 87.6522 96.1746 87.4759C95.6723 87.3122 95.2705 87.0099 94.8686 86.6825C94.5045 86.3425 94.1403 85.8765 93.9017 85.2973C93.6631 84.7306 93.5375 84.1261 93.5375 83.3831C93.5375 82.6527 93.6631 82.0104 93.9017 81.4689C94.1403 80.9022 94.4668 80.4615 94.8435 80.0963C95.2077 79.7688 95.6723 79.4666 96.1746 79.2903C96.6769 79.1266 97.1541 79.0636 97.6188 79.0636C98.1839 79.0636 98.6234 79.1644 99.0629 79.3281C99.4899 79.4918 99.8289 79.7688 100.093 80.0333V79.1896H102.403V87.6144H100.093V86.6447C99.8289 86.947 99.4648 87.2492 99.0629 87.4507C98.5857 87.6522 98.1211 87.7529 97.5811 87.7529ZM98.0583 85.6751C98.3597 85.6751 98.6611 85.5995 98.9248 85.4988C99.1885 85.398 99.4271 85.2343 99.5903 84.995C99.7662 84.7935 99.9294 84.5291 100.068 84.2646C100.168 83.9876 100.231 83.6853 100.231 83.3831C100.231 83.0809 100.168 82.7786 100.068 82.5142C99.9671 82.2497 99.8289 81.9727 99.5903 81.8089C99.4271 81.6074 99.1634 81.4689 98.9248 81.3052C98.6611 81.2045 98.3597 81.1415 98.0583 81.1415C97.7569 81.1415 97.4179 81.2045 97.1541 81.3052C96.8779 81.406 96.6142 81.5697 96.4509 81.7712C96.25 81.9727 96.1119 82.2497 95.9737 82.4764C95.8733 82.7534 95.8105 83.0557 95.8105 83.3831C95.8105 83.6853 95.8733 84.0253 95.9737 84.2898C96.0742 84.5669 96.25 84.8313 96.4509 84.995C96.6518 85.1965 96.9155 85.335 97.1541 85.4988C97.4179 85.5743 97.6816 85.6751 98.0583 85.6751ZM46.2827 69.3291C44.5121 69.3291 42.9047 68.8883 41.4229 68.0446C39.9536 67.2134 38.8109 66.0674 37.9821 64.6318C37.1407 63.1458 36.7012 61.5716 36.7012 59.8338C36.7012 58.0455 37.1407 56.4336 37.9821 54.9602C38.8109 53.4868 39.9536 52.3786 41.4229 51.5348C42.9047 50.7037 44.5121 50.2629 46.2827 50.2629C47.4883 50.2629 48.631 50.4266 49.6356 50.8296C50.6403 51.2074 51.5068 51.6734 52.2728 52.2149C53.0137 52.7816 53.6541 53.3231 54.1188 53.915L51.1677 56.5092C50.5649 55.8669 49.8617 55.3632 49.058 54.8972C48.292 54.4187 47.3501 54.2172 46.3455 54.2172C45.3409 54.2172 44.4367 54.4565 43.6079 54.9602C42.7666 55.4639 42.101 56.1062 41.6615 56.9373C41.1968 57.7811 40.9582 58.7508 40.9582 59.796C40.9582 60.8286 41.1968 61.7731 41.6615 62.6421C42.1261 63.5236 42.7666 64.191 43.6079 64.657C44.4367 65.1607 45.3409 65.4 46.3455 65.4C47.3878 65.4 48.3548 65.1607 49.1961 64.6948C50.0375 64.2288 50.7407 63.6495 51.3435 62.9443L54.3197 65.5385C53.516 66.546 52.4109 67.4149 51.0044 68.1831C49.598 68.989 48.0534 69.3291 46.2827 69.3291ZM65.1696 69.3542C63.3989 69.3542 61.7915 68.9261 60.3097 68.0823C58.8405 67.2386 57.6977 66.143 56.8689 64.657C56.0275 63.2214 55.588 61.6094 55.588 59.859C55.588 58.0833 56.0275 56.4714 56.8689 54.998C57.6977 53.5498 58.8405 52.4164 60.3097 51.5726C61.7915 50.7289 63.3989 50.3007 65.1696 50.3007C66.9402 50.3007 68.5853 50.7289 70.0545 51.5726C71.5363 52.4164 72.6665 53.512 73.5079 54.998C74.3493 56.4714 74.7762 58.0833 74.7762 59.859C74.7762 61.6094 74.3493 63.1836 73.5079 64.657C72.6665 66.1052 71.5363 67.2386 70.0545 68.0823C68.5853 68.9261 66.9402 69.3542 65.1696 69.3542ZM65.1696 65.4378C66.1742 65.4378 67.0784 65.1985 67.9197 64.6948C68.7485 64.2288 69.3513 63.5488 69.8285 62.6798C70.2931 61.8109 70.5317 60.8664 70.5317 59.8338C70.5317 58.7885 70.2931 57.8189 69.8285 56.9751C69.389 56.1314 68.7485 55.5017 67.9197 54.998C67.0784 54.4943 66.1742 54.255 65.1696 54.255C64.165 54.255 63.2985 54.4943 62.4571 54.998C61.6534 55.4639 61.013 56.1314 60.5483 56.9751C60.0837 57.8189 59.8451 58.7885 59.8451 59.8338C59.8451 60.8664 60.0837 61.8109 60.5483 62.6798C60.9878 63.5488 61.6157 64.191 62.4571 64.6948C63.2985 65.1607 64.2026 65.4 65.1696 65.4378ZM77.8906 68.9513V50.6659H82.0849V53.1216H82.1853C82.449 52.643 82.8509 52.1771 83.3532 51.7741C83.8555 51.3711 84.4959 51.0059 85.2243 50.7289C85.9652 50.4266 86.7312 50.3007 87.5349 50.3007H88.4391V54.7587C88.2381 54.6957 87.9744 54.658 87.7107 54.6202C87.4344 54.595 87.1331 54.5572 86.8694 54.5572C85.9652 54.5572 85.1615 54.8217 84.4206 55.2247C83.6922 55.6276 83.1146 56.2699 82.6876 57.1136C82.2481 57.9448 82.0472 58.8515 82.0472 59.8967V68.9513H77.8906ZM98.7239 69.392C96.9155 69.392 95.2705 68.9513 93.8012 68.1201C92.3194 67.2764 91.1515 66.1682 90.3102 64.6948C89.4814 63.2465 89.0418 61.6346 89.0418 59.8967C89.0418 58.1211 89.4814 56.5092 90.3102 55.0609C91.1474 53.6169 92.2859 52.4751 93.7259 51.6356C95.17 50.8044 96.7397 50.3637 98.4476 50.3637C100.155 50.3637 101.7 50.7289 103.107 51.5097C104.475 52.2778 105.555 53.3231 106.321 54.6957C107.087 56.0306 107.464 57.5418 107.464 59.2545C107.464 59.6575 107.426 60.0353 107.389 60.3627C107.364 60.6649 107.288 60.9672 107.263 61.1687H93.3994C93.525 61.9746 93.8263 62.7176 94.3286 63.3851C94.8058 64.0525 95.4337 64.594 96.2374 64.9592C97.0411 65.3622 97.9202 65.5385 98.8871 65.5385C99.8917 65.5385 100.834 65.2992 101.662 64.934C102.504 64.531 103.245 64.0273 103.91 63.4228L106.422 66.0674C105.719 66.9112 104.676 67.6793 103.307 68.3468C101.939 69.0268 100.394 69.3291 98.7239 69.392ZM103.169 58.1463C102.968 57.2774 102.705 56.5344 102.265 55.9299C101.838 55.3254 101.298 54.8217 100.658 54.4943C99.9922 54.1165 99.2513 53.9527 98.4225 53.9527C97.5434 53.9527 96.7397 54.1165 96.0365 54.4943C95.3333 54.8595 94.8058 55.3254 94.3286 55.9299C93.8933 56.5344 93.5584 57.2732 93.324 58.1463H103.169ZM120.888 69.4298C119.946 69.4298 119.042 69.2535 118.213 68.9513C117.372 68.649 116.669 68.3216 116.066 67.8431C115.463 67.3771 115.024 66.9363 114.722 66.4452H114.66V69.0268H110.478V42.4048H114.697V53.3231H114.76C115.024 52.8194 115.463 52.3786 116.066 51.9378C116.669 51.5097 117.372 51.1319 118.213 50.8296C119.042 50.5022 119.921 50.3637 120.888 50.3637C122.395 50.3637 123.764 50.7289 125.07 51.5726C126.376 52.3786 127.418 53.512 128.184 54.9602C128.988 56.4084 129.365 58.0455 129.365 59.859C129.365 61.6346 128.963 63.2843 128.184 64.7325C127.418 66.1682 126.376 67.2764 125.07 68.1201C123.764 68.9261 122.395 69.3291 120.888 69.4298ZM119.921 65.4C120.888 65.4 121.755 65.1607 122.533 64.657C123.299 64.191 123.902 63.5236 124.367 62.6798C124.836 61.8403 125.07 60.9 125.07 59.859C125.07 58.8263 124.844 57.844 124.367 57.0129C123.94 56.1691 123.299 55.5269 122.533 55.0232C121.755 54.5194 120.888 54.2928 119.921 54.2928C118.942 54.2928 118.075 54.5194 117.309 55.0232C116.506 55.5017 115.903 56.1691 115.426 57.0129C114.961 57.844 114.722 58.8263 114.722 59.859C114.722 60.9 114.957 61.8403 115.426 62.6798C115.903 63.5236 116.531 64.1532 117.309 64.657C118.113 65.1355 118.942 65.4 119.921 65.4ZM132.504 68.9513V50.6659H136.698V53.1216H136.799C137.063 52.643 137.464 52.1771 137.967 51.7741C138.469 51.3711 139.11 51.0059 139.838 50.7289C140.579 50.4266 141.345 50.3007 142.149 50.3007H143.053V54.7587C142.852 54.6957 142.588 54.658 142.324 54.6202C142.048 54.595 141.747 54.5572 141.483 54.5572C140.579 54.5572 139.775 54.7587 139.034 55.2247C138.306 55.6276 137.728 56.2699 137.301 57.1136C136.862 57.9448 136.661 58.8515 136.661 59.8967V68.9513H132.504ZM147.712 47.2406C147.31 47.2406 146.87 47.1398 146.506 46.9005C146.104 46.6739 145.803 46.3716 145.564 46.0064C145.326 45.6664 145.225 45.2634 145.225 44.7975C145.225 44.3567 145.326 43.9537 145.564 43.5885C145.803 43.2107 146.129 42.9085 146.506 42.707C146.874 42.5055 147.276 42.4048 147.712 42.4048C148.147 42.4048 148.549 42.5055 148.917 42.707C149.281 42.9085 149.62 43.2485 149.846 43.5885C150.085 43.9159 150.185 44.3189 150.185 44.7975C150.185 45.2256 150.085 45.6664 149.846 46.0064C149.62 46.3716 149.281 46.6739 148.917 46.9005C148.515 47.1398 148.113 47.2783 147.712 47.2406ZM149.784 68.989H145.564V50.7037H149.784V68.989ZM161.475 69.2157C159.968 69.2157 158.587 68.8505 157.281 68.0068C155.975 67.2008 154.945 66.0674 154.166 64.6192C153.363 63.1836 152.998 61.5339 152.998 59.7582C152.998 57.9448 153.4 56.2951 154.166 54.8595C154.945 53.4112 155.975 52.303 157.281 51.4719C158.587 50.6911 159.968 50.2629 161.475 50.2629C162.442 50.2629 163.308 50.4266 164.15 50.7289C164.991 51.0311 165.694 51.3963 166.297 51.8371C166.9 52.2653 167.327 52.706 167.603 53.2097H167.666V42.3418H171.923V68.9135H167.729V66.3319H167.666C167.364 66.8356 166.925 67.2764 166.322 67.7423C165.719 68.1831 165.016 68.5483 164.187 68.8505C163.346 69.1905 162.442 69.3165 161.475 69.2157ZM162.48 65.3874C163.446 65.3874 164.313 65.1607 165.092 64.657C165.895 64.191 166.498 63.511 166.963 62.6798C167.431 61.8403 167.666 60.9 167.666 59.859C167.666 58.8137 167.427 57.844 166.963 57.0003C166.498 56.1691 165.858 55.5269 165.092 55.0232C164.313 54.5194 163.446 54.2802 162.48 54.2802C161.5 54.2802 160.634 54.5194 159.868 55.0232C159.089 55.4891 158.486 56.1691 158.022 57.0003C157.557 57.844 157.318 58.8137 157.318 59.859C157.318 60.9 157.553 61.8403 158.022 62.6798C158.461 63.511 159.089 64.1532 159.868 64.657C160.634 65.1229 161.5 65.3622 162.48 65.3874ZM206.105 69.392C204.297 69.392 202.664 68.9513 201.182 68.1075C199.713 67.2764 198.545 66.1682 197.704 64.6948C196.863 63.2465 196.436 61.6346 196.436 59.8841C196.436 58.1085 196.863 56.4966 197.704 55.0609C198.541 53.6169 199.68 52.4751 201.12 51.6356C202.564 50.7918 204.134 50.3637 205.841 50.3637C207.549 50.3637 209.094 50.7289 210.5 51.4971C211.869 52.2653 212.937 53.3105 213.715 54.6831C214.481 56.0306 214.845 57.5418 214.845 59.2545C214.845 59.6575 214.82 60.0227 214.783 60.3627C214.745 60.6649 214.682 60.9672 214.644 61.1687H200.781C200.919 61.9746 201.22 62.705 201.722 63.3851C202.187 64.0525 202.828 64.5562 203.631 64.9592C204.435 65.3622 205.301 65.5259 206.281 65.5259C207.286 65.5259 208.215 65.2866 209.056 64.9214C209.898 64.5185 210.626 64.0147 211.304 63.4102L213.816 66.0674C213.112 66.8986 212.07 67.6793 210.701 68.3468C209.32 69.0142 207.75 69.3165 206.105 69.392ZM210.525 58.1463C210.325 57.2774 210.061 56.5344 209.621 55.9299C209.194 55.3254 208.654 54.8217 208.014 54.4817C207.348 54.1165 206.607 53.9527 205.779 53.9527C204.9 53.9527 204.096 54.1542 203.393 54.4817C202.689 54.8595 202.162 55.3254 201.685 55.9299C201.249 56.5344 200.915 57.2732 200.68 58.1463H210.525ZM189.265 66.3319C189.001 66.8356 188.524 67.2764 187.922 67.7423C187.319 68.2083 186.616 68.5483 185.787 68.8505C184.945 69.1528 184.041 69.3165 183.099 69.3165C181.592 69.3165 180.224 68.8883 178.918 68.1075C177.612 67.2764 176.569 66.1682 175.803 64.7199C175.037 63.2843 174.635 61.6346 174.635 59.859C174.635 58.0455 175 56.3958 175.803 54.9602C176.569 53.512 177.612 52.366 178.918 51.56C180.224 50.7289 181.592 50.3637 183.099 50.3637C184.079 50.3637 184.945 50.4896 185.787 50.8296C186.616 51.1319 187.319 51.4971 187.922 51.9378C188.524 52.366 188.964 52.8068 189.228 53.3105H189.303V50.7667H193.522V68.1831C193.522 70.0972 193.321 71.8351 192.48 73.3463C191.639 74.8953 190.508 76.0664 188.964 76.9102C187.457 77.7791 185.749 78.2199 183.803 78.2199C181.969 78.2199 180.261 77.7791 178.679 77.0109C177.109 76.1672 175.967 75.2227 175.138 74.2908L178.114 71.4699C178.679 72.0744 179.458 72.7418 180.462 73.2833C181.467 73.85 182.635 74.1523 183.702 74.1523C184.845 74.1523 185.887 73.913 186.716 73.4093C187.557 72.9055 188.198 72.2381 188.662 71.3062C189.127 70.3995 189.366 69.3542 189.366 68.1075V66.3319H189.265ZM188.6 56.9751C188.122 56.1314 187.52 55.4639 186.716 54.9854C185.95 54.4817 185.083 54.255 184.104 54.255C183.137 54.255 182.271 54.4817 181.492 54.9854C180.726 55.4891 180.085 56.1314 179.659 56.9751C179.181 57.8063 178.955 58.7759 178.955 59.8212C178.955 60.8622 179.19 61.8025 179.659 62.6421C180.123 63.4858 180.726 64.1532 181.492 64.6192C182.271 65.1229 183.137 65.3622 184.104 65.3622C185.083 65.3622 185.95 65.1229 186.716 64.6192C187.495 64.1155 188.122 63.4858 188.6 62.6421C189.068 61.8025 189.303 60.8622 189.303 59.8212C189.303 58.7508 189.102 57.8063 188.6 56.9751Z" fill="black"/>
<path d="M235.953 25.5934C235.012 25.5934 234.246 24.8378 234.246 23.8933C234.246 22.9363 235.012 22.1807 235.953 22.1807C236.895 22.1807 237.661 22.9363 237.661 23.8933C237.661 24.8378 236.895 25.5934 235.953 25.5934Z" fill="black"/>
<path d="M228.822 29.0572C227.541 29.0572 226.511 28.0245 226.511 26.74C226.511 25.4555 227.541 24.4229 228.822 24.4229C230.103 24.4229 231.132 25.4555 231.132 26.74C231.132 28.0245 230.103 29.0572 228.822 29.0572Z" fill="black"/>
<path d="M233.58 32.5451C232.488 32.5451 231.596 31.6636 231.596 30.568C231.596 29.4723 232.488 28.5908 233.58 28.5908C234.673 28.5908 235.552 29.4723 235.552 30.568C235.552 31.6636 234.673 32.5451 233.58 32.5451Z" fill="black"/>
<path d="M219.239 33.9189C217.268 33.9189 215.66 32.3195 215.66 30.3298C215.66 28.3527 217.268 26.7407 219.239 26.7407C221.223 26.7407 222.831 28.3527 222.831 30.3298C222.831 32.3195 221.223 33.9189 219.239 33.9189Z" fill="black"/>
<path d="M230.391 41.7376C228.708 41.7376 227.352 40.3775 227.352 38.69C227.352 37.0025 228.708 35.6299 230.391 35.6299C232.086 35.6299 233.442 37.0025 233.442 38.69C233.442 40.3775 232.086 41.7376 230.391 41.7376Z" fill="black"/>
<path d="M206.217 40.5052C203.404 40.5052 201.131 38.2258 201.131 35.4049C201.131 32.5841 203.404 30.3047 206.217 30.3047C209.03 30.3047 211.303 32.5841 211.303 35.4049C211.303 38.2258 209.03 40.5052 206.217 40.5052Z" fill="black"/>
<path d="M226.147 54.1295C223.899 54.1295 222.091 52.316 222.091 50.0619C222.091 47.8203 223.899 46.0068 226.147 46.0068C228.382 46.0068 230.191 47.8203 230.191 50.0619C230.191 52.316 228.382 54.1295 226.147 54.1295Z" fill="black"/>
</svg>
