<svg width="275" height="110" viewBox="0 0 275 110" fill="none" xmlns="http://www.w3.org/2000/svg">
<path d="M68.9226 61.7017L67.264 61.9918L67.698 58.6731L67.264 58.0228L67.698 54.2688L71.9478 56.002L68.9226 61.7017ZM75.6964 71.6761H70.1471L75.4096 63.3649L76.9933 57.9451L80.3079 59.1006C80.0211 63.2924 78.6519 67.5568 75.6964 71.6761ZM73.7511 63.0774L71.661 64.8909L67.481 71.6761H64.7425L67.481 66.834L69.6434 65.0204L72.7435 56.2766L76.0581 57.6497L73.7511 63.0774ZM66.6155 46.1649L55.5893 39.7346L51.554 39.0092V41.9731L54.6541 44.8644L50.3294 44.5016C50.3294 44.5016 50.4741 44.7193 54.0754 48.5484L70.5088 51.2972L73.392 53.1755L65.8999 53.5382L62.7998 64.8831L52.6261 71.6761H46.0047L48.2394 67.2718L47.8777 67.1293L41.897 71.6813H40.4554L46.5834 63.0774C46.8701 60.6187 46.7255 61.7017 47.0872 57.2948L46.1494 55.9994L43.6977 65.5412L38.5824 71.6839H37.2907L40.3159 67.4195L44.5683 54.3387L43.4884 54.8439L41.6128 60.0488L40.3211 60.7716C40.3211 60.7716 37.2958 68.1423 35.7096 71.7564C33.4052 68.4325 30.801 63.9505 30.801 56.1471C30.801 44.4395 40.8197 32.0815 55.8813 32.0815C70.3667 32.0815 78.0784 43.6441 79.3753 49.6417L66.6155 46.1649ZM63.2183 71.6761H59.7694L66.1841 63.6448L66.8351 64.8909L63.2183 71.6761ZM55.7263 81.6505C49.6009 81.6505 42.1062 79.4821 36.7016 72.8419H74.6785C70.2866 78.5416 62.7145 81.6505 55.7237 81.6505H55.7263ZM55.8683 33.6619C41.742 33.6619 32.5164 45.297 32.5164 56.1393C32.5164 62.3571 34.0304 65.4661 35.6889 68.4247C37.779 62.7872 41.959 51.5848 41.959 51.5848C41.959 51.5848 43.9043 50.5718 43.9043 50.7195L46.7151 43.5638L48.5236 42.6233L50.7557 37.8538L55.6643 38.6491L65.608 44.2141L76.7815 47.323C73.8983 39.9523 65.7552 33.6645 55.8813 33.6645" fill="black"/>
<path d="M237.24 72.836V71.7505H237.454C237.912 71.7682 238.363 71.6423 238.746 71.3904C239.036 71.1313 239.214 70.8852 239.214 69.5768V51.8068C239.214 51.2887 239.214 50.1798 238.674 49.6384C238.299 49.3305 237.828 49.1645 237.343 49.1694H236.695V48.0839L243.611 47.5424V69.5846C243.611 70.7738 243.792 71.1391 244.081 71.3981C244.37 71.6572 245.016 71.7583 245.701 71.7583H245.99V72.8438L237.24 72.836ZM215.368 53.2525C214.642 53.2525 213.946 52.9631 213.432 52.4481C212.918 51.9331 212.63 51.2346 212.63 50.5063C212.63 49.7779 212.918 49.0794 213.432 48.5644C213.946 48.0494 214.642 47.7601 215.368 47.7601C216.095 47.7601 216.791 48.0494 217.305 48.5644C217.818 49.0794 218.107 49.7779 218.107 50.5063C218.107 51.2346 217.818 51.9331 217.305 52.4481C216.791 52.9631 216.095 53.2525 215.368 53.2525ZM230.611 72.836C230.647 72.836 230.575 70.0898 230.536 70.0898C230.249 71.4992 228.087 73.3412 225.674 73.3412C221.889 73.3412 220.701 70.6675 220.701 68.968C220.701 64.9575 224.7 63.6207 230.213 62.5377V59.6879C230.213 57.7371 229.384 56.579 226.826 56.579C225.095 56.579 223.62 57.6283 223.403 58.2423V58.3148C223.62 57.9884 224.088 57.8822 224.436 57.8822C225.7 57.8822 226.563 58.6024 226.563 59.8693C226.563 60.8434 225.555 61.9419 224.15 61.9419C222.997 61.9419 221.628 61.1828 221.628 59.4107C221.628 57.0272 224.403 55.4002 227.971 55.4002C231.14 55.4002 234.597 56.3044 234.597 61.2553V69.5561C234.597 70.7815 234.778 71.1805 235.067 71.3981C235.425 71.6503 235.855 71.7769 236.292 71.7583H236.651V72.8438L230.611 72.836ZM211.008 72.836V71.7505H211.55C212.067 71.7505 212.63 71.7142 212.953 71.2323C213.276 70.7505 213.278 69.7867 213.278 68.6675V59.5998C213.278 58.877 213.351 57.8666 212.736 57.3614C212.377 57.035 211.703 56.9987 211.044 56.9987H210.685V55.8769H217.709V68.6701C217.709 69.7893 217.673 70.7634 218.035 71.2349C218.396 71.7064 218.897 71.7531 219.404 71.7531H220.088V72.8386L211.008 72.836ZM210.07 71.209C209.352 72.7272 207.982 73.3412 205.936 73.3412C202.296 73.3412 201.684 70.7038 201.684 68.6079V57.0091H198.648V55.8873H198.938C202.867 55.8873 204.955 50.6488 204.955 48.0839H206.083V55.8873H209.468V57.0091H206.143V69.1494C206.143 70.3048 206.288 71.4266 207.548 71.4266C207.781 71.4321 208.011 71.3744 208.214 71.2594C208.417 71.1445 208.585 70.9767 208.701 70.7738C209.385 69.7996 209.352 67.8488 209.352 66.5482H210.685C210.685 68.5354 210.54 70.1986 210.07 71.2116V71.209ZM192.812 72.8386V60.2294C192.812 57.7371 191.624 57.5557 190.65 57.5557C189.965 57.5557 189.175 57.9521 188.635 58.82C188.165 59.6154 187.911 61.061 187.911 62.4704V68.7219C187.911 70.1649 187.842 70.8904 188.17 71.2505C188.498 71.6106 188.854 71.7686 189.79 71.7686H190.306V72.8541H181.101V71.7686H181.641C182.434 71.7686 182.933 71.5899 183.228 71.2505C183.522 70.9111 183.486 70.1649 183.486 68.7219V60.0092C183.486 58.8874 183.522 57.9366 183.197 57.478C182.871 57.0194 182.298 56.9728 181.794 56.9728H181.101V55.8873H187.516L187.588 58.5273H187.625C188.237 56.9365 189.784 55.3821 192.381 55.3821C196.272 55.3821 197.209 57.5143 197.209 61.0558V68.7504C197.209 70.1598 197.173 70.7738 197.496 71.2453C197.819 71.7168 198.434 71.7634 198.901 71.7634H199.586V72.849L192.812 72.8386ZM169.561 63.8046C169.514 65.0865 169.601 66.3699 169.819 67.6338C170.179 69.6934 171.044 71.8619 173.46 71.8619C176.818 71.8619 178.397 68.9007 178.397 67.056H179.799C179.799 69.4784 177.459 73.3438 172.845 73.3438C167.443 73.3438 164.777 69.5147 164.777 64.3461C164.777 58.9988 168.272 55.3847 172.703 55.3847C177.963 55.3847 180.016 59.2164 180.016 63.8046H169.561ZM157.636 72.8386L157.564 70.2012C157.256 71.3178 155.629 73.3412 152.864 73.3412C147.532 73.3412 146.127 68.4628 146.127 64.3435C146.127 60.2242 148.578 55.3821 153.44 55.3821C155.856 55.3821 156.827 56.3588 157.189 57.0816V51.8068C157.189 50.8664 157.189 50.1798 156.646 49.6384C156.323 49.3119 155.82 49.1694 154.99 49.1694H154.667V48.0839L161.573 47.5347V69.5768C161.573 70.766 161.754 71.1313 162.043 71.3904C162.333 71.6494 162.978 71.7505 163.627 71.7505H164.097V72.836L157.636 72.8386ZM138.901 72.8386L138.828 70.2012C138.828 70.2012 138.792 70.3074 138.792 70.2012C138.358 71.5743 136.521 73.3438 134.072 73.3438C130.001 73.3438 129.099 70.9603 129.099 67.8151V60.5144C129.099 58.3822 129.027 57.5868 128.882 57.3718C128.737 57.1567 128.595 56.9728 127.657 56.9728H127.399V55.8873H133.524V68.2815C133.524 70.9914 135 71.0639 135.72 71.0639C136.948 71.0639 137.919 69.981 138.281 68.5354C138.463 67.6443 138.535 66.7341 138.495 65.8254V60.5144C138.495 59.0325 138.531 57.8044 138.208 57.4417C137.885 57.079 137.524 56.9728 136.4 56.9728H136.072V55.8873H142.918V68.7504C142.918 69.8722 142.99 70.7738 143.313 71.2453C143.636 71.7168 144.142 71.7634 144.646 71.7634H145.297V72.849L138.901 72.8386ZM124.343 59.6491C123.082 59.6491 122.325 58.7449 122.325 58.0221C122.309 57.6994 122.371 57.3777 122.506 57.0842H122.47C120.741 58.5298 120.344 64.0197 120.344 66.1518V68.7426C120.344 69.8644 120.344 70.766 120.667 71.2375C120.989 71.709 121.821 71.7557 122.289 71.7557H123.929V72.8412H112.536V71.7557H113.616C114.769 71.7557 115.347 71.5769 115.634 71.1054C116.032 70.4551 115.959 68.7219 115.959 68.7219V62.1025C115.959 59.9366 115.887 58.3096 115.634 57.7319C115.381 57.1541 114.913 56.9728 113.942 56.9728H113.544V55.8873H119.669L119.85 60.2242H119.886C120.065 58.1283 121.292 55.3821 124.103 55.3821C125.614 55.3821 126.552 56.1049 126.552 57.5143C126.558 57.8023 126.505 58.0885 126.396 58.355C126.287 58.6214 126.124 58.8624 125.917 59.0626C125.711 59.2629 125.465 59.4181 125.196 59.5186C124.927 59.6191 124.64 59.6626 124.353 59.6465L124.343 59.6491ZM103.347 62.1025H101.619V69.4758C101.619 70.2323 101.688 70.8489 102.05 71.2453C102.376 71.5717 102.952 71.7634 103.995 71.7634H104.897V72.849H93.4756V71.7634H94.478C95.3435 71.7634 96.0643 71.6184 96.4234 71.3308C96.7825 71.0432 96.9659 70.4629 96.9659 69.4887V51.6617C96.9659 50.5063 96.785 49.7109 96.2089 49.4207C95.8472 49.2031 95.1626 49.1617 94.2274 49.1617H93.4705V48.0761H103.342C108.387 48.0761 112.746 49.8897 112.746 55.123C112.746 60.1076 108.457 62.0947 103.342 62.0947L103.347 62.1025ZM230.208 63.6129C227.002 64.2269 225.237 65.0586 225.237 68.3462C225.237 70.2608 226.209 71.2375 227.289 71.2375C228.802 71.2375 229.342 70.3359 229.668 69.6831C229.993 69.0302 230.208 67.6234 230.208 66.3151V63.6129ZM172.672 56.3225C169.716 56.3225 169.68 60.947 169.61 62.6466H175.519C175.555 60.8019 175.41 56.3225 172.677 56.3225H172.672ZM157.176 62.4652C157.176 60.3693 156.887 56.7914 154.184 56.7914C151.123 56.7914 151.084 61.9237 151.084 64.3435C151.084 66.4394 151.229 71.3904 154.073 71.3904C154.599 71.3797 155.109 71.2124 155.539 70.9097C155.969 70.607 156.3 70.1827 156.489 69.6908C156.972 68.5117 157.205 67.2448 157.173 65.9705L157.176 62.4652ZM103.347 49.1694H101.619V60.9133H103.347C107.346 60.9133 108.067 58.0635 108.067 55.1308C108.067 52.198 107.346 49.172 103.347 49.172" fill="black"/>
</svg>
