<svg width="272" height="110" viewBox="0 0 272 110" fill="none" xmlns="http://www.w3.org/2000/svg">
<path d="M226.404 67.4063C227.018 67.3907 227.622 67.5599 228.141 67.8925C228.659 68.2252 229.068 68.7061 229.316 69.2743C229.563 69.8424 229.638 70.4721 229.53 71.0833C229.423 71.6946 229.138 72.2597 228.712 72.707C228.287 73.1542 227.739 73.4633 227.139 73.5951C226.539 73.7268 225.914 73.6752 225.343 73.4469C224.772 73.2185 224.281 72.8236 223.932 72.3125C223.584 71.8014 223.393 71.197 223.386 70.5763C223.375 69.7527 223.686 68.9581 224.251 68.3647C224.816 67.7713 225.589 67.427 226.404 67.4063ZM226.404 73.1938C226.921 73.2069 227.43 73.0638 227.867 72.7828C228.303 72.5018 228.647 72.0957 228.854 71.6163C229.061 71.1369 229.122 70.606 229.029 70.0914C228.936 69.5768 228.693 69.102 228.332 68.7274C227.971 68.3529 227.507 68.0958 227.001 67.9888C226.494 67.8819 225.968 67.93 225.489 68.127C225.01 68.324 224.599 68.661 224.31 69.095C224.021 69.5289 223.867 70.0401 223.867 70.5631C223.853 70.9115 223.909 71.2591 224.033 71.5845C224.156 71.9099 224.345 72.2062 224.586 72.4552C224.828 72.7042 225.117 72.9005 225.436 73.0321C225.756 73.1636 226.098 73.2276 226.443 73.2201L226.404 73.1938ZM225.22 68.7216H226.612C227.445 68.7216 227.913 69.0505 227.913 69.7476C227.926 69.8771 227.911 70.008 227.871 70.1315C227.83 70.255 227.764 70.3683 227.676 70.464C227.589 70.5597 227.483 70.6356 227.364 70.6867C227.246 70.7378 227.118 70.7629 226.989 70.7604L228.017 72.3783H227.289L226.261 70.7736H225.779V72.3915H225.194L225.22 68.7216ZM225.831 70.2869H226.534C226.976 70.2869 227.276 70.1948 227.276 69.7081C227.276 69.2215 226.898 69.1688 226.521 69.182H225.818L225.831 70.2869Z" fill="black"/>
<path d="M151.179 36.5753C145.767 41.258 143.373 45.2962 139.47 52.2412C140.851 54.5288 141.647 57.1281 141.786 59.8045L143.907 56.4635C147.81 50.4129 153.521 42.7707 161.444 39.1403C161.444 39.1403 161.6 39.2587 161.613 39.2455V39.5217C153.911 44.941 144.479 63.7638 142.632 66.7891C148.33 64.6056 153.04 59.7519 155.902 63.3955L156.552 62.3432H159.336L154.887 70.3406C154.562 71.3402 154.887 72.8923 156.969 70.4984L158.061 69.183C160.768 65.6316 161.574 64.1847 163.031 63.1719C163.851 62.3432 166.7 61.6066 167.247 63.2639L167.585 64.1189C169.445 63.2245 171.215 61.4882 173.231 62.8036C173.843 63.4744 174.714 64.0268 173.57 66.4076C172.373 68.3018 172.594 68.0255 171.397 69.9986C170.421 71.5375 170.785 74.1946 175.014 69.4593C177.616 65.9341 180.127 60.8437 185.656 62.4221C186.502 62.9746 186.84 63.356 186.619 64.1978C186.455 64.4576 186.207 64.6512 185.917 64.745C185.627 64.8387 185.314 64.8266 185.031 64.7108C184.251 64.3688 184.602 62.6457 182.612 63.9348C181.053 65.6622 179.783 67.6347 178.852 69.775C178.422 70.8799 178.591 71.8269 179.736 72.2084C180.442 72.1942 181.136 72.016 181.763 71.6875C182.39 71.3591 182.934 70.8892 183.353 70.3142C186.957 67.4073 189.728 61.1857 195.309 62.4221C198.08 63.3297 196.337 66.6576 199.681 64.6714C202.582 63.0535 203.662 61.6855 207.344 62.501C207.718 62.6522 208.041 62.9108 208.272 63.2449C208.503 63.5791 208.633 63.9744 208.645 64.382C208.612 64.599 208.515 64.8009 208.367 64.9607C208.218 65.1206 208.024 65.2307 207.812 65.2764C206.199 65.7894 207.292 62.9219 205.041 63.9611C203.591 65.1945 202.446 66.7528 201.697 68.5122C200.071 71.0772 200.813 73.892 204.924 70.9325C206.305 69.9151 207.559 68.7314 208.658 67.4073C216.607 58.818 217.088 53.4645 225.662 45.6645C228.914 42.1261 233.91 41.8236 230.983 46.2169C230.476 46.87 229.933 47.4936 229.357 48.0847C227.254 50.1604 224.876 51.9311 222.292 53.3461C220.12 56.4898 218.78 59.2652 216.685 62.7115L216.034 64.0268C217.34 63.1709 218.731 62.4567 220.185 61.896C224.543 60.8305 224.309 64.4346 223.658 65.4869C221.59 68.5517 217.908 68.8147 214.785 69.433C218.532 71.9058 220.328 74.8391 223.437 79.7322C226.487 80.1786 229.463 81.0414 232.284 82.2972C233.914 83.0642 235.448 84.027 236.851 85.1646C242.692 91.1364 235.771 94.8062 228.433 89.8078C225.128 87.2692 224.127 85.6645 221.095 81.2449C208.319 79.7425 195.414 79.7425 182.638 81.2449L182.416 81.0213C190.418 78.8246 207.5 77.6145 219.547 79.114C218.116 76.6806 214.955 70.3669 213.042 69.8276C212.272 71.0307 211.565 72.2731 210.921 73.55H207.018C208.163 71.3271 209.946 68.2886 210.856 66.2498C209.089 68.3963 207.095 70.3414 204.911 72.0505C201.32 74.3655 199.616 73.6026 198.406 72.3794C197.3 70.551 198.328 68.1045 198.926 66.0525C197.781 66.2629 197.976 66.9338 196.623 66.6181C195.478 69.0647 194.945 70.4852 193.085 72.0111C189.962 74.4182 187.438 73.7079 186.384 72.1031C185.916 70.8803 185.916 69.5246 186.384 68.3018C183.913 70.722 180.907 74.7865 176.9 73.0897C176.458 72.8476 176.09 72.4881 175.836 72.05C175.581 71.6118 175.45 71.1117 175.456 70.6036C175.505 70.317 175.579 70.0353 175.677 69.7618C172.698 73.3001 169.549 74.5365 167.767 72.6556C166.466 71.1298 169.224 67.3942 169.849 66.2366L170.148 65.7105C171.319 63.9348 168.99 64.3951 168.613 64.724C167.182 65.2238 166.011 67.2889 164.866 69.3146L162.641 73.55H158.985C160.533 70.6694 162.121 68.1176 163.591 65.2633C163.682 64.9081 163.721 63.7506 162.407 64.6977C161.86 65.4474 161.106 66.3813 159.805 68.2228C158.751 69.6434 155.824 74.2866 153.027 73.6421C151.726 73.1949 151.661 72.866 151.491 72.1426C151.413 71.9321 151.582 71.4849 151.491 71.6428C150.888 72.2626 150.16 72.7443 149.356 73.0552C148.553 73.3661 147.692 73.4989 146.834 73.4448C146.328 73.3909 145.851 73.1798 145.469 72.8406C145.087 72.5014 144.818 72.0507 144.7 71.5507C144.554 69.6442 145.151 67.7555 146.365 66.2893L145.975 66.3945C144.714 66.9692 143.409 67.4399 142.072 67.8019C140.94 69.5776 139.99 71.748 138.859 73.55H134.656L137.258 68.2886C135.463 68.2502 133.693 67.8476 132.054 67.1048C131.2 68.8695 129.959 70.4143 128.426 71.6222C126.893 72.8301 125.109 73.6693 123.207 74.0762C119.864 74.7207 116.572 73.0107 114.1 71.577C110.275 74.6418 102.925 74.8917 107.296 68.9463C108.064 67.723 107.153 69.1436 108.194 67.4731C108.495 67.0528 108.768 66.6135 109.013 66.1577C110.484 64.1584 107.712 62.6326 104.655 67.7625C103.354 69.9328 102.769 70.6694 101.064 73.6158H97.8118C99.4251 70.7615 101.064 68.1308 102.639 65.2764C103.185 64.382 102.743 62.9746 100.973 64.9476L100.661 65.329C99.6332 66.6444 97.3695 69.7881 95.8993 71.7085C92.9981 75.1548 88.965 73.6026 90.9815 69.9196C91.8532 68.2623 91.9052 68.3149 92.2825 67.6441C92.6598 66.9732 92.907 66.4734 93.0371 66.1709C95.0277 63.0272 90.8905 63.5402 87.729 69.7223L85.4783 73.5895H82.0956C82.0956 73.5895 86.2979 66.3156 88.2104 62.7509L87.4948 63.2639C86.4033 64.4484 84.8926 65.1483 83.2926 65.2107C82.8237 67.6896 81.5566 69.942 79.6888 71.6165C76.6834 74.2472 74.3807 73.4448 73.496 72.9318C73.1122 72.5892 72.8048 72.1682 72.594 71.6966C72.3831 71.2249 72.2738 70.7134 72.273 70.1959C72.3901 67.6704 73.8082 66.0525 75.2914 64.0531C74.1855 64.382 72.7674 64.3951 71.3883 64.895C69.8662 67.894 63.1139 83.5073 58.3132 90.5708C48.6727 104.25 37.1588 106.25 33.5941 102.646C30.9921 99.3442 33.9063 92.2281 39.956 84.2307C45.9536 76.8253 55.8023 69.6303 67.1601 65.2238C71.7026 57.0088 77.3996 49.5033 84.0732 42.9417C80.5735 44.7305 74.0424 44.5332 71.3363 42.1261C72.182 47.3876 67.9277 52.9384 63.231 54.622C67.6024 51.3336 71.4144 46.822 70.2955 41.4685C69.632 40.5872 69.1896 40.7056 68.8123 39.5349C68.6302 38.0485 70.0093 38.2195 70.6208 40.0347C71.9218 41.9683 74.771 43.0732 78.0625 43.2179C81.5009 43.231 84.8313 42.0045 87.4558 39.7585L87.6249 40.1531C80.6385 46.7299 73.6651 60.015 72.0909 63.6717C77.0347 62.159 80.9768 61.2514 82.1217 62.8036C82.8372 63.3297 82.7071 63.7506 83.4227 64.1189C85.0229 64.6582 88.4576 61.2646 90.5912 58.4234C94.4032 53.5961 96.1335 47.427 103.992 42.9548C105.358 42.3103 107.283 43.0469 105.839 45.4935C104.538 47.7164 99.9975 51.5178 97.5256 53.1883C95.522 54.5037 93.6226 59.4231 91.0206 63.2508C93.0892 62.33 98.5534 60.3044 96.6279 65.2764C95.9229 66.7907 95.1233 68.2581 94.234 69.6697C93.2453 70.8404 93.8047 72.5635 95.7302 70.0249C96.1986 69.4724 97.8248 67.1705 98.5144 66.3024C100.674 63.5928 102.04 61.3698 104.889 62.3563C105.631 62.7773 105.735 63.8558 105.696 64.6582C106.695 63.8008 107.812 63.0962 109.013 62.5668C109.483 62.3166 109.999 62.1707 110.529 62.139C111.059 62.1072 111.589 62.1903 112.084 62.3826C113.567 63.4349 112.344 65.579 112.084 66.0393L109.352 70.4326C108.805 71.6559 109.196 72.6556 110.9 72.1558C111.825 71.8456 112.701 71.4026 113.502 70.8404C112.786 70.038 112.11 69.354 112.708 69.1173C112.904 69.2093 114.244 70.3142 114.244 70.3142C118.046 67.4118 121.496 64.0651 124.522 60.3438C124.073 59.4241 123.791 58.4307 123.689 57.4106C123.064 54.53 124.456 47.4139 131.755 47.4402C131.755 47.4402 132.861 44.0334 132.9 43.8361C133.399 42.1804 133.426 40.4162 132.978 38.7457C132.835 38.0222 132.796 37.4303 133.355 37.233C134.76 37.3514 134.253 39.0877 134.656 39.969C135.06 40.8502 135.307 41.6395 136.231 41.9946C142.332 44.6253 147.614 37.1146 151.231 36.207L151.179 36.5753ZM102.391 45.6645C100.648 47.5622 99.149 49.6747 97.9289 51.9519C100.505 50.2561 102.808 48.1711 104.759 45.7697C106.164 44.257 104.993 42.7444 102.391 45.6645ZM228.459 45.0462C226.475 46.9097 224.797 49.081 223.489 51.4783L225.844 49.8341C227.02 48.9603 228.125 47.9926 229.149 46.9403C232.401 43.4941 229.89 43.5599 228.459 45.0462ZM126.226 50.9259C125.342 52.13 124.775 53.5417 124.579 55.0282C124.384 56.5147 124.565 58.0271 125.107 59.4231C127.721 56.1963 129.783 52.5508 131.209 48.6372C130.26 48.6175 129.32 48.8143 128.457 49.2128C127.595 49.6114 126.832 50.2014 126.226 50.939V50.9259ZM132.315 48.7555C130.8 52.8699 128.648 56.7149 125.94 60.1465L125.679 60.5938C126.421 62.0157 127.498 63.2309 128.815 64.1321C131.326 60.0676 133.446 55.4507 136.621 50.6234C135.814 49.5053 133.199 48.7687 132.315 48.7555ZM138.976 53.4382L132.939 65.671L132.614 66.2761C134.221 66.9481 135.926 67.3523 137.662 67.4731C139.105 65.4674 139.988 63.1057 140.217 60.6361C140.445 58.1665 140.012 55.6801 138.963 53.4382H138.976ZM126.07 63.1455L124.86 61.5408C122.041 65.0241 118.812 68.147 115.245 70.8404C117.035 71.8288 119.099 72.1896 121.113 71.8664C124.404 71.1955 126.642 67.9203 128.216 65.1844L126.07 63.1455ZM151.426 64.3031C150.207 65.6963 149.178 67.2492 148.369 68.92C147.445 70.5905 147.653 71.6822 148.369 72.0374C149.085 72.3925 149.67 72.0374 150.971 70.722C152.179 69.1346 153.271 67.4596 154.237 65.7105C155.941 62.3432 152.818 62.4221 151.413 64.3031H151.426ZM194.867 65.066C195.322 62.4353 192.942 63.014 189.962 67.381C187.868 70.4195 188.661 75.4047 193.631 69.6697C194.113 68.9586 194.547 68.216 194.932 67.4468C196.064 65.2238 194.802 65.8683 194.841 65.3422L194.867 65.066ZM218.064 63.9611C216.477 64.8029 215.462 65.3817 213.562 68.749C216.165 68.3281 218.363 67.7361 219.729 65.9999C221.408 63.6717 219.482 63.1719 218.051 63.9611H218.064ZM66.3925 66.5918C53.3824 72.2478 45.3292 79.89 37.9264 90.1235C35.0382 94.7404 32.1499 100.199 35.0122 102.448C39.1884 104.829 46.9684 101.712 56.5438 84.507C60.1997 77.9302 63.9596 71.4849 66.3925 66.5918ZM224.959 82.1525C225.958 83.6184 227.115 84.9683 228.407 86.1775C229.292 86.9272 230.892 88.5583 231.959 89.2949C238.347 93.7145 240.871 88.3215 234.639 85.0199C231.63 83.4308 228.341 82.4565 224.959 82.1525ZM134.201 41.6395C133.914 43.7013 133.422 45.7285 132.731 47.6901C134.348 47.8666 135.877 48.5208 137.128 49.5711C138.91 47.0453 140.871 44.6538 142.996 42.4155C141.773 43.4941 136.348 44.7963 134.201 41.6395ZM81.3541 64.7766C81.6143 62.7773 79.5717 62.6194 76.7615 67.0653C73.9513 71.1298 75.4605 74.7996 79.5457 70.2485C80.3135 69.2359 80.9926 68.1576 81.5752 67.0259C82.4859 64.8818 81.3671 65.5921 81.3931 65.066L81.3541 64.7766ZM87.3647 39.9295C87.5599 39.7322 87.8591 40.0084 87.6119 40.232C87.4818 40.1926 87.2997 39.9953 87.3647 39.9426V39.9295Z" fill="black"/>
</svg>
