<svg width="276" height="110" viewBox="0 0 276 110" fill="none" xmlns="http://www.w3.org/2000/svg">
<path d="M52.5523 38.0259C51.7048 37.4045 50.8113 36.8431 49.8735 36.3506C47.6742 36.4653 40.004 37.4222 39.6625 42.6637C39.659 42.7272 39.7174 42.7696 39.7527 42.7166C43.1889 37.6164 50.3336 37.6693 52.5523 38.0259Z" fill="black"/>
<path d="M37.0013 48.6965C36.6457 48.7195 36.4475 48.8025 36.3077 49.1308C36.0866 49.6446 36.2724 50.0471 35.9397 50.2889C35.7893 50.3984 35.8353 50.7144 36.0246 50.7126C37.3658 50.6897 38.2859 50.6738 39.8712 49.6481C40.0393 49.5386 40.011 49.2826 39.8199 49.2209C39.0131 48.9543 37.794 48.6453 37.0013 48.6965Z" fill="black"/>
<path d="M46.0032 45.5393C46.0439 45.5464 46.0828 45.5446 46.12 45.5499C46.4154 45.5958 46.649 45.6735 46.4862 45.4228C45.621 44.2364 44.048 45.5287 43.5349 46.0495C43.9985 46.2825 44.4302 46.5703 44.8212 46.9022C44.9911 46.0813 45.5785 45.4722 46.0032 45.5393Z" fill="black"/>
<path d="M57.4638 61.2575C57.4638 55.8236 54.6204 51.0518 50.3386 48.3419L50.3333 48.326C54.2453 49.7666 58.0158 51.9451 61.2042 54.5084C61.1671 53.1614 61.0043 51.8462 60.7265 50.5751C57.9026 47.3797 53.7464 45.1677 49.2239 44.8429C49.0752 44.5339 48.647 43.6636 47.5943 43.1445C48.7178 42.8886 49.8838 42.7544 51.0835 42.7544C52.7166 42.7544 54.2842 43.0263 55.7705 43.4694C56.7578 43.7642 58.076 44.2373 58.2671 44.3291C57.5169 43.0633 56.6393 41.8823 55.652 40.8036C42.9214 37.8731 41.7536 45.2471 41.7536 45.2471C41.7359 45.3301 41.7713 45.4148 41.8544 45.4307C41.9305 45.4449 42.0102 45.4625 42.0845 45.4819C42.157 45.4996 42.2331 45.4749 42.2826 45.4184C42.5445 45.1183 42.8382 44.8429 43.1514 44.5992C43.8839 44.029 44.9898 43.3034 46.637 43.8684C47.7004 44.3168 48.4453 45.3672 48.4453 46.5906C48.4453 47.7593 47.7323 48.7815 46.7432 49.2617L46.6884 49.2899C46.7432 49.3941 46.7874 49.5053 46.8281 49.6041C47.0705 50.2821 47.2032 51.0112 47.2032 51.772C47.2032 53.3856 46.5238 54.9586 45.5418 56.0884C45.5648 56.0355 45.6657 55.8095 45.7736 55.5465C45.9948 55.008 46.1151 54.4449 46.1151 53.8252C46.1151 52.5647 45.5754 51.4313 44.712 50.6404C45.3295 52.6477 44.6854 58.7577 39.8356 58.673C39.8356 58.673 38.1423 58.6024 37.5213 58.4047C37.5213 58.4047 37.6805 61.021 35.8298 61.3688C35.3078 61.4676 34.7593 61.4588 34.1896 61.4588C32.7458 61.4588 31.3037 61.051 29.7874 60.1701C28.6178 59.3844 28.1666 58.5936 28.1755 58.3058C28.2356 56.3321 28.7788 56.1043 29.8617 55.8183C30.3217 55.6965 31.0808 55.8166 31.5992 55.9861C31.7107 56.0231 31.8044 55.9154 31.7638 55.8042C31.6381 55.4547 31.44 55.0398 31.2754 54.9198C31.0436 54.752 30.7322 54.7132 30.3783 54.7238C29.9254 54.7379 29.5574 54.9868 29.0955 54.9621C28.3913 54.9251 28.1631 54.4696 27.45 54.4502C26.8166 54.4325 26.7511 54.8615 26.3495 54.8809C26.1655 54.8897 25.9337 54.5843 25.9938 54.3848C26.1761 53.7899 26.7812 52.8595 27.1652 52.5912C28.1348 51.9133 29.7573 51.1524 30.7163 50.4533C31.0861 50.1832 31.5567 46.5818 34.3028 45.8156C34.531 45.752 34.6425 45.7732 34.8318 45.6391C34.8548 45.6232 34.8619 45.5949 34.8531 45.5667C32.8165 39.7003 37.9778 37.2481 37.9247 37.2887C36.9568 38.0284 35.2016 40.1698 36.3039 42.8992C36.3269 42.9574 36.4207 42.9574 36.4313 42.8974C37.5337 36.3478 45.5153 35.4651 47.6739 35.3485C45.2888 34.4235 42.6949 33.915 39.9825 33.915C28.2586 33.915 18.7554 43.397 18.7554 55.0945C18.7554 64.7407 25.2189 72.8809 34.0622 75.4372L33.7171 73.6189C33.5862 72.9304 33.519 72.2207 33.519 71.4933C33.519 66.9739 36.1624 63.0724 39.9895 61.2399C39.0642 62.8217 38.5333 64.6595 38.5333 66.6226C38.5333 67.5618 38.6678 68.3227 38.9775 69.1065C39.4357 66.672 40.7097 64.5253 42.5056 62.9629C43.5778 61.8578 44.6837 60.8833 45.9877 59.388C46.9768 58.2528 47.6916 56.8723 48.2224 55.4723C48.371 55.0804 48.4931 54.6797 48.6046 54.2754C48.6612 54.0688 48.7161 53.8623 48.7691 53.6557C48.8204 53.4545 48.8682 53.0272 48.939 53.0272C48.9815 53.0237 49.0221 53.5039 49.0469 53.7793C49.0664 53.9859 49.0947 54.3248 49.1053 54.5314C49.2062 56.6022 48.9779 58.7118 48.3427 60.6944C48.2932 60.848 48.2419 60.9998 48.1888 61.1516C47.2315 63.8421 45.6798 66.1353 43.9458 68.3209C42.4631 70.1905 41.4263 72.4731 41.4263 75.0453C41.4263 75.4178 41.4103 75.8539 41.4457 76.2211C42.6949 76.1363 43.9158 75.9439 45.0959 75.6526C45.2127 75.0471 45.5825 73.8731 45.586 73.8731C47.6067 68.4674 53.1306 64.5747 52.8104 56.8864C52.8086 56.8405 52.8705 56.8211 52.8918 56.8617C54.3409 59.6987 53.4243 65.7681 52.437 70.247C52.4388 70.2452 52.4388 70.2452 52.4406 70.2434C52.2565 71.0873 52.0672 71.9223 51.8921 72.6285C53.2067 71.7387 54.4134 70.7042 55.4945 69.5514C56.9701 67.2034 57.4638 64.234 57.4638 61.2575ZM26.7918 59.7852C26.691 59.9794 26.5671 60.283 26.4698 60.2848C26.3654 60.2866 26.2044 59.7375 26.1089 59.4851C26.0222 59.2573 25.9443 59.0261 25.8771 58.7913C25.7709 58.4205 25.6931 58.0374 25.6665 57.6526C25.6294 57.1247 25.6895 56.558 25.9762 56.099C25.9938 56.069 26.2469 55.7583 26.3955 55.7707C27.0555 55.8307 27.2041 57.1653 27.2041 58.0498C27.2006 58.4611 27.0042 59.3774 26.7918 59.7852ZM34.6584 62.8429C31.6204 65.1767 31.555 66.3825 31.5267 66.3648C31.5249 66.3631 31.5213 66.3613 31.5196 66.3595C31.516 66.3701 31.5143 66.3772 31.5125 66.3754C30.3943 65.6693 29.1504 63.8597 28.7399 63.1147C28.6054 63.3425 28.5524 63.9145 28.5718 64.1563C28.5754 64.204 28.5612 64.2993 28.4798 64.1952C28.3506 64.0345 28.2321 63.8721 28.1401 63.692C27.8995 63.2895 27.611 62.7775 27.5456 62.3397C27.5456 62.3397 27.4253 61.5259 27.45 61.1781C27.4978 60.4684 27.7243 59.9617 27.8782 59.6987C28.2976 60.5902 29.66 61.6177 30.4827 61.9972C31.44 62.4386 33.089 62.9929 34.6284 62.7687C34.6708 62.7617 34.6921 62.8164 34.6584 62.8429Z" fill="black"/>
<path d="M147.005 58.6332V51.2573H142.393V58.6332V66.1679H151.622V64.3725H147.005V58.6332Z" fill="black"/>
<path d="M102.731 53.1562H105.939V58.5283V66.1619H110.55V58.6272V53.1562H113.864V51.2549H102.731V53.1562Z" fill="black"/>
<path d="M96.84 58.6325V64.9667C95.5378 65.0691 94.4337 64.7549 94.4337 63.5685V58.6325V51.2549H90.1235V58.6325V61.6672V62.7635C90.1235 64.4654 90.9304 65.3075 91.9247 65.7682C92.4556 66.0154 93.0306 66.169 93.5278 66.169H101.251V65.7682V58.6325V51.2549H96.84V58.6325Z" fill="black"/>
<path d="M137.691 51.2573H129.469V52.6573H134.485C134.885 52.6573 135.187 52.9574 135.385 53.2593C135.686 53.8525 135.584 54.6575 135.584 54.6575V56.4847H131.072C129.872 56.4882 128.865 57.6198 128.865 59.0569V59.357V61.6679V62.8631C128.865 64.3707 129.37 65.2658 130.171 65.7671C130.573 66.069 131.072 66.1679 131.576 66.1679H140V65.7671V59.357V53.9566V53.2593C139.998 52.2689 138.995 51.2573 137.691 51.2573ZM135.584 64.9639C134.28 65.068 133.478 64.9639 133.379 63.5692C133.379 63.5692 133.354 61.4172 133.42 59.4717C133.46 58.2642 134.458 57.9394 135.584 57.9199V59.357V64.9639Z" fill="black"/>
<path d="M122.064 58.6342V64.9597C120.762 65.0621 119.66 64.7478 119.66 63.5632V58.6342V51.2549H115.348V58.6342V61.6601V62.76C115.348 64.4601 116.156 65.3039 117.151 65.7629C117.681 66.0083 118.255 66.1637 118.754 66.1637H126.479V65.7629V58.6342V51.2549H122.066L122.064 58.6342Z" fill="black"/>
<path d="M209.96 51.2681H194.657V54.1633V58.6421V66.1751H199.266V58.6421V54.1633V52.6663C200.572 52.6663 201.471 52.9664 201.471 54.1633V58.6421V66.1751H206.188V65.7744V58.6421V54.1633V52.6663C207.49 52.6663 208.393 52.9664 208.393 54.1633V58.6421V66.1751H213.103V58.6421V54.0468C213.106 52.8481 211.567 51.2681 209.96 51.2681Z" fill="black"/>
<path d="M192.039 51.2575C191.969 51.0121 191.898 50.7526 191.823 50.5001V50.4948C191.685 50.0164 191.531 49.5415 191.333 49.1584C189.736 45.2551 186.418 43.4509 181.908 43.4509C176.993 43.3485 173.785 45.7512 172.279 49.1584C172.1 49.5998 171.92 50.0464 171.812 50.4966H171.81C171.798 50.5496 171.785 50.6025 171.776 50.6555C171.573 51.4605 171.476 52.3556 171.378 53.2595C171.18 54.6577 171.18 56.1565 171.278 57.4611C171.332 57.8601 171.394 58.2502 171.46 58.6333H171.462C171.626 59.5602 171.833 60.3934 172.132 61.0643C172.215 61.2532 172.281 61.465 172.38 61.6681C173.579 63.7689 174.99 65.0647 176.692 65.7673C178.298 66.4717 179.999 66.7648 182.005 66.6624C183.714 66.6624 185.211 66.3623 186.519 65.7673C188.099 65.0453 189.504 64.1025 190.532 62.8632C190.854 62.4784 191.033 62.067 191.234 61.6681C191.94 60.2681 192.227 57.8619 192.243 57.4611C192.338 56.0559 192.338 54.5553 192.243 53.2595C192.243 52.5586 192.138 51.8542 192.039 51.2575ZM186.715 58.6351C186.699 59.6979 186.639 60.7059 186.418 61.6681C185.921 63.8678 184.714 65.4654 181.908 65.4654C178.9 65.4654 177.596 63.9666 177.095 61.6681C176.945 60.7624 176.849 59.7508 176.814 58.6333V58.6263C176.803 58.2485 176.796 57.8601 176.796 57.4611V55.0584V53.2595C176.796 52.2885 176.796 51.3617 176.848 50.5019C176.878 50.0305 176.925 49.5804 176.994 49.1567C177.295 46.4503 178.399 44.8562 181.91 44.8562C185.015 44.8562 186.124 46.6533 186.521 49.1567C186.591 49.5715 186.637 50.0235 186.667 50.4984V50.5019C186.721 51.374 186.722 52.3397 186.722 53.3601V55.0584V57.4611C186.722 57.8583 186.722 58.2485 186.715 58.6333V58.6351Z" fill="black"/>
<path d="M80.4009 50.4894L78.3626 58.6226L78.2033 59.2564L78.0299 58.6226L75.7775 50.4894L73.9922 44.0439H67.9746V50.4894V58.6226V66.1573H70.0802V58.6226V50.4894V48.6446L70.588 50.4894L72.8227 58.6226L74.8911 66.1573H78.4033L80.3478 58.6226L82.4427 50.4894L82.9187 48.6446V50.4894V58.6226V66.1573H87.7331V58.6226V50.4894V44.0439H82.0145L80.4009 50.4894Z" fill="black"/>
<path d="M164.648 50.4973H164.642C164.127 51.2176 163.834 51.7543 163.834 51.7543H157.814C156.91 51.6607 156.314 51.5654 155.309 51.8567C153.074 52.5028 152.398 54.1323 151.901 55.2639C151.496 56.1748 151.487 57.3206 152.2 58.1627C152.35 58.3427 152.529 58.4946 152.726 58.6358H152.738C154.143 59.5785 156.599 59.4479 158.136 58.6358V58.6287C158.232 58.5775 158.329 58.5193 158.418 58.4646C159.722 57.6242 160.789 55.5287 160.298 53.2637C160.275 53.1542 160.222 53.0642 160.222 52.9618H163.227C163.227 52.9618 163.128 53.0642 163.029 53.2637C162.724 54.0599 161.93 55.8694 161.226 57.4653C161.065 57.8855 160.877 58.2845 160.689 58.6376V58.6393C160.525 58.9536 160.362 59.2325 160.222 59.4691C159.718 60.3659 158.77 62.4155 156.512 63.1693C154.511 63.8331 152.303 62.6079 152.303 62.6079L152.198 63.6725C152.559 63.8543 152.706 63.9373 152.867 64.0026C153.062 64.0838 153.27 64.128 153.906 64.2745C156.284 64.8271 159.623 63.2735 161.226 61.6758C161.652 61.2468 162.367 60.6007 163.374 58.6411V58.634C163.552 58.288 163.736 57.8996 163.933 57.4689C164.131 57.0699 164.334 56.5632 164.531 55.963C165.033 54.6636 165.534 52.9653 165.534 52.9653H169.547L169.851 51.7596H166.143C166.249 51.3429 166.419 50.9086 166.594 50.5097H166.596C166.888 49.8724 167.21 49.3374 167.348 49.1644C167.785 48.6207 168.167 47.7892 169.849 47.858V46.7617C168.179 47.1501 167.045 47.8439 166.132 48.7407C165.53 49.3268 165.028 49.9606 164.648 50.4973ZM157.313 56.1589C157.098 56.655 156.91 57.0646 156.613 57.4653C156.11 58.1644 155.523 58.5599 154.806 58.3622C154.221 58.2015 153.906 57.9579 153.906 57.4653C153.906 56.9604 154.145 56.3796 154.403 55.7635C154.624 55.2586 155.71 53.2637 155.71 53.2637C155.912 52.9618 156.273 52.7164 156.613 52.6617C157.411 52.5328 158.019 52.7641 158.117 53.2637C158.317 54.157 157.786 55.0785 157.313 56.1589Z" fill="black"/>
<path d="M224.316 51.2549H216.094V52.6548H221.11C221.51 52.6548 221.812 52.955 222.01 53.2568C222.311 53.85 222.209 55.3789 222.209 55.3789V56.4822H217.697C216.497 56.4858 215.49 57.6174 215.49 59.0544V59.3545V61.6654V62.8606C215.49 64.3683 215.996 65.2633 216.796 65.7647C217.198 66.0666 217.697 66.1654 218.201 66.1654H226.625V65.7647V59.3545V53.9542V53.2568C226.623 52.2665 225.62 51.2549 224.316 51.2549ZM222.209 64.9614C220.905 65.0656 220.103 64.9614 220.004 63.5668C220.004 63.5668 219.979 61.4147 220.045 59.4693C220.085 58.2617 221.083 57.9369 222.209 57.9175V59.3545V64.9614Z" fill="black"/>
<path d="M252.044 51.2383H243.822V52.64H248.838C249.238 52.64 249.541 52.9401 249.739 53.242C250.04 53.837 249.937 55.3658 249.937 55.3658V56.4709H245.425C244.226 56.4745 243.219 57.6078 243.219 59.0466V59.3468V61.6612V62.8581C243.219 64.3676 243.725 65.2644 244.525 65.7675C244.926 66.0712 245.425 66.1683 245.929 66.1683H254.353V65.7675V59.3468V53.9393V53.242C254.352 52.2516 253.348 51.2383 252.044 51.2383ZM249.937 64.9643C248.633 65.0684 247.832 64.9643 247.732 63.5661C247.732 63.5661 247.708 61.4105 247.773 59.4633C247.814 58.254 248.812 57.9291 249.937 57.9097V59.3485V64.9643Z" fill="black"/>
<path d="M236.155 53.2593V55.8862V56.4829H233.703V55.8862V53.2593V51.2573H229.018V53.2593V55.8862V57.0567V61.6679V65.7671V66.1661H233.703V65.7671V61.6679V58.2907H236.155V61.6679V65.7671V66.1661H240.844V65.7671V61.6679V57.0567V55.8862V53.2593V51.2573H236.155V53.2593Z" fill="black"/>
<path d="M256.695 51.2393C256.18 51.2393 255.766 51.6541 255.766 52.1661C255.766 52.6781 256.182 53.0929 256.695 53.0929C257.208 53.0929 257.624 52.6781 257.624 52.1661C257.622 51.6541 257.206 51.2393 256.695 51.2393ZM256.691 52.9164C256.275 52.9164 255.939 52.581 255.939 52.1679C255.939 51.753 256.275 51.4176 256.691 51.4176C257.105 51.4176 257.441 51.753 257.441 52.1679C257.441 52.581 257.105 52.9164 256.691 52.9164Z" fill="black"/>
<path d="M256.907 51.946C256.907 52.006 256.885 52.0537 256.85 52.0837C256.809 52.119 256.751 52.1331 256.648 52.1331H256.535V51.7765H256.657C256.717 51.7765 256.765 51.7835 256.799 51.7959C256.862 51.8189 256.907 51.8753 256.907 51.946ZM257.135 52.6839C257.112 52.6504 257.016 52.5162 256.967 52.4473C256.928 52.3926 256.892 52.3485 256.868 52.3202C256.848 52.2973 256.802 52.2355 256.792 52.2249C256.977 52.2249 257.078 52.1031 257.078 51.9442C257.078 51.8436 257.027 51.7765 256.974 51.7323C256.919 51.6864 256.838 51.6582 256.7 51.6582H256.374V52.6839H256.537V52.2302C256.549 52.2302 256.641 52.2302 256.641 52.2302C256.641 52.2302 256.753 52.4014 256.843 52.5321C256.891 52.6027 256.905 52.6256 256.938 52.6839H257.135Z" fill="black"/>
</svg>
